<?xml version="1.0" encoding="utf-8" standalone="no"?>
<!DOCTYPE svg PUBLIC "-//W3C//DTD SVG 1.1//EN"
  "http://www.w3.org/Graphics/SVG/1.1/DTD/svg11.dtd">
<svg xmlns:xlink="http://www.w3.org/1999/xlink" width="720pt" height="360pt" viewBox="0 0 720 360" xmlns="http://www.w3.org/2000/svg" version="1.1">
 <metadata>
  <rdf:RDF xmlns:dc="http://purl.org/dc/elements/1.1/" xmlns:cc="http://creativecommons.org/ns#" xmlns:rdf="http://www.w3.org/1999/02/22-rdf-syntax-ns#">
   <cc:Work>
    <dc:type rdf:resource="http://purl.org/dc/dcmitype/StillImage"/>
    <dc:date>2022-12-17T12:55:25.272040</dc:date>
    <dc:format>image/svg+xml</dc:format>
    <dc:creator>
     <cc:Agent>
      <dc:title>Matplotlib v3.6.0, https://matplotlib.org/</dc:title>
     </cc:Agent>
    </dc:creator>
   </cc:Work>
  </rdf:RDF>
 </metadata>
 <defs>
  <style type="text/css">*{stroke-linejoin: round; stroke-linecap: butt}</style>
 </defs>
 <g id="figure_1">
  <g id="patch_1">
   <path d="M 0 360 
L 720 360 
L 720 0 
L 0 0 
z
" style="fill: #ffffff"/>
  </g>
  <g id="axes_1">
   <g id="patch_2">
    <path d="M 90 320.4 
L 648 320.4 
L 648 43.2 
L 90 43.2 
z
" style="fill: #ffffff"/>
   </g>
   <g id="PathCollection_1">
    <defs>
     <path id="mdcb265922c" d="M 0 1.581139 
C 0.419323 1.581139 0.821528 1.41454 1.118034 1.118034 
C 1.41454 0.821528 1.581139 0.419323 1.581139 0 
C 1.581139 -0.419323 1.41454 -0.821528 1.118034 -1.118034 
C 0.821528 -1.41454 0.419323 -1.581139 0 -1.581139 
C -0.419323 -1.581139 -0.821528 -1.41454 -1.118034 -1.118034 
C -1.41454 -0.821528 -1.581139 -0.419323 -1.581139 0 
C -1.581139 0.419323 -1.41454 0.821528 -1.118034 1.118034 
C -0.821528 1.41454 -0.419323 1.581139 0 1.581139 
z
" style="stroke: #000000"/>
    </defs>
    <g clip-path="url(#p876d607f70)">
     <use xlink:href="#mdcb265922c" x="98.584615" y="203.220699" style="stroke: #000000"/>
     <use xlink:href="#mdcb265922c" x="107.169231" y="191.367415" style="stroke: #000000"/>
     <use xlink:href="#mdcb265922c" x="115.753846" y="190.384954" style="stroke: #000000"/>
     <use xlink:href="#mdcb265922c" x="124.338462" y="188.945654" style="stroke: #000000"/>
     <use xlink:href="#mdcb265922c" x="132.923077" y="189.879674" style="stroke: #000000"/>
     <use xlink:href="#mdcb265922c" x="141.507692" y="126.264649" style="stroke: #000000"/>
     <use xlink:href="#mdcb265922c" x="150.092308" y="204.122733" style="stroke: #000000"/>
     <use xlink:href="#mdcb265922c" x="158.676923" y="207.978355" style="stroke: #000000"/>
     <use xlink:href="#mdcb265922c" x="167.261538" y="212.055011" style="stroke: #000000"/>
     <use xlink:href="#mdcb265922c" x="175.846154" y="205.61854" style="stroke: #000000"/>
     <use xlink:href="#mdcb265922c" x="184.430769" y="307.8" style="stroke: #000000"/>
     <use xlink:href="#mdcb265922c" x="193.015385" y="188.598761" style="stroke: #000000"/>
     <use xlink:href="#mdcb265922c" x="201.6" y="185.153467" style="stroke: #000000"/>
     <use xlink:href="#mdcb265922c" x="210.184615" y="188.558834" style="stroke: #000000"/>
     <use xlink:href="#mdcb265922c" x="218.769231" y="188.441908" style="stroke: #000000"/>
     <use xlink:href="#mdcb265922c" x="227.353846" y="193.921821" style="stroke: #000000"/>
     <use xlink:href="#mdcb265922c" x="235.938462" y="212.714383" style="stroke: #000000"/>
     <use xlink:href="#mdcb265922c" x="244.523077" y="226.883109" style="stroke: #000000"/>
     <use xlink:href="#mdcb265922c" x="253.107692" y="238.984176" style="stroke: #000000"/>
     <use xlink:href="#mdcb265922c" x="261.692308" y="223.196745" style="stroke: #000000"/>
     <use xlink:href="#mdcb265922c" x="270.276923" y="191.492409" style="stroke: #000000"/>
     <use xlink:href="#mdcb265922c" x="278.861538" y="170.649944" style="stroke: #000000"/>
     <use xlink:href="#mdcb265922c" x="287.446154" y="124.919914" style="stroke: #000000"/>
     <use xlink:href="#mdcb265922c" x="296.030769" y="88.089321" style="stroke: #000000"/>
     <use xlink:href="#mdcb265922c" x="304.615385" y="67.165843" style="stroke: #000000"/>
     <use xlink:href="#mdcb265922c" x="313.2" y="57.402085" style="stroke: #000000"/>
     <use xlink:href="#mdcb265922c" x="321.784615" y="55.8" style="stroke: #000000"/>
     <use xlink:href="#mdcb265922c" x="330.369231" y="83.207051" style="stroke: #000000"/>
     <use xlink:href="#mdcb265922c" x="338.953846" y="130.20153" style="stroke: #000000"/>
     <use xlink:href="#mdcb265922c" x="347.538462" y="164.516291" style="stroke: #000000"/>
     <use xlink:href="#mdcb265922c" x="356.123077" y="194.732155" style="stroke: #000000"/>
     <use xlink:href="#mdcb265922c" x="364.707692" y="217.151914" style="stroke: #000000"/>
     <use xlink:href="#mdcb265922c" x="373.292308" y="232.515307" style="stroke: #000000"/>
     <use xlink:href="#mdcb265922c" x="381.876923" y="222.388555" style="stroke: #000000"/>
     <use xlink:href="#mdcb265922c" x="390.461538" y="215.678575" style="stroke: #000000"/>
     <use xlink:href="#mdcb265922c" x="399.046154" y="198.290186" style="stroke: #000000"/>
     <use xlink:href="#mdcb265922c" x="407.630769" y="185.683384" style="stroke: #000000"/>
     <use xlink:href="#mdcb265922c" x="416.215385" y="176.702141" style="stroke: #000000"/>
     <use xlink:href="#mdcb265922c" x="424.8" y="179.269512" style="stroke: #000000"/>
     <use xlink:href="#mdcb265922c" x="433.384615" y="183.046619" style="stroke: #000000"/>
     <use xlink:href="#mdcb265922c" x="441.969231" y="194.416832" style="stroke: #000000"/>
     <use xlink:href="#mdcb265922c" x="450.553846" y="203.655854" style="stroke: #000000"/>
     <use xlink:href="#mdcb265922c" x="459.138462" y="307.8" style="stroke: #000000"/>
     <use xlink:href="#mdcb265922c" x="467.723077" y="219.050463" style="stroke: #000000"/>
     <use xlink:href="#mdcb265922c" x="476.307692" y="206.848448" style="stroke: #000000"/>
     <use xlink:href="#mdcb265922c" x="484.892308" y="198.001576" style="stroke: #000000"/>
     <use xlink:href="#mdcb265922c" x="493.476923" y="190.449381" style="stroke: #000000"/>
     <use xlink:href="#mdcb265922c" x="502.061538" y="186.732764" style="stroke: #000000"/>
     <use xlink:href="#mdcb265922c" x="510.646154" y="183.995508" style="stroke: #000000"/>
     <use xlink:href="#mdcb265922c" x="519.230769" y="194.713964" style="stroke: #000000"/>
     <use xlink:href="#mdcb265922c" x="527.815385" y="126.264649" style="stroke: #000000"/>
     <use xlink:href="#mdcb265922c" x="536.4" y="203.9149" style="stroke: #000000"/>
     <use xlink:href="#mdcb265922c" x="544.984615" y="203.282382" style="stroke: #000000"/>
     <use xlink:href="#mdcb265922c" x="553.569231" y="206.863585" style="stroke: #000000"/>
     <use xlink:href="#mdcb265922c" x="562.153846" y="196.76304" style="stroke: #000000"/>
     <use xlink:href="#mdcb265922c" x="570.738462" y="196.839432" style="stroke: #000000"/>
     <use xlink:href="#mdcb265922c" x="579.323077" y="195.827071" style="stroke: #000000"/>
     <use xlink:href="#mdcb265922c" x="587.907692" y="194.677296" style="stroke: #000000"/>
     <use xlink:href="#mdcb265922c" x="596.492308" y="194.111208" style="stroke: #000000"/>
     <use xlink:href="#mdcb265922c" x="605.076923" y="207.196849" style="stroke: #000000"/>
     <use xlink:href="#mdcb265922c" x="613.661538" y="199.419866" style="stroke: #000000"/>
     <use xlink:href="#mdcb265922c" x="622.246154" y="205.12815" style="stroke: #000000"/>
     <use xlink:href="#mdcb265922c" x="630.830769" y="204.359211" style="stroke: #000000"/>
    </g>
   </g>
   <g id="matplotlib.axis_1">
    <g id="xtick_1">
     <g id="line2d_1">
      <defs>
       <path id="mfad9981c8b" d="M 0 0 
L 0 3.5 
" style="stroke: #000000; stroke-width: 0.8"/>
      </defs>
      <g>
       <use xlink:href="#mfad9981c8b" x="98.584615" y="320.4" style="stroke: #000000; stroke-width: 0.8"/>
      </g>
     </g>
     <g id="text_1">
      <!-- 0.00 -->
      <g transform="translate(87.451803 334.998438) scale(0.1 -0.1)">
       <defs>
        <path id="DejaVuSans-30" d="M 2034 4250 
Q 1547 4250 1301 3770 
Q 1056 3291 1056 2328 
Q 1056 1369 1301 889 
Q 1547 409 2034 409 
Q 2525 409 2770 889 
Q 3016 1369 3016 2328 
Q 3016 3291 2770 3770 
Q 2525 4250 2034 4250 
z
M 2034 4750 
Q 2819 4750 3233 4129 
Q 3647 3509 3647 2328 
Q 3647 1150 3233 529 
Q 2819 -91 2034 -91 
Q 1250 -91 836 529 
Q 422 1150 422 2328 
Q 422 3509 836 4129 
Q 1250 4750 2034 4750 
z
" transform="scale(0.015625)"/>
        <path id="DejaVuSans-2e" d="M 684 794 
L 1344 794 
L 1344 0 
L 684 0 
L 684 794 
z
" transform="scale(0.015625)"/>
       </defs>
       <use xlink:href="#DejaVuSans-30"/>
       <use xlink:href="#DejaVuSans-2e" x="63.623047"/>
       <use xlink:href="#DejaVuSans-30" x="95.410156"/>
       <use xlink:href="#DejaVuSans-30" x="159.033203"/>
      </g>
     </g>
    </g>
    <g id="xtick_2">
     <g id="line2d_2">
      <g>
       <use xlink:href="#mfad9981c8b" x="184.430769" y="320.4" style="stroke: #000000; stroke-width: 0.8"/>
      </g>
     </g>
     <g id="text_2">
      <!-- 2.00 -->
      <g transform="translate(173.297957 334.998438) scale(0.1 -0.1)">
       <defs>
        <path id="DejaVuSans-32" d="M 1228 531 
L 3431 531 
L 3431 0 
L 469 0 
L 469 531 
Q 828 903 1448 1529 
Q 2069 2156 2228 2338 
Q 2531 2678 2651 2914 
Q 2772 3150 2772 3378 
Q 2772 3750 2511 3984 
Q 2250 4219 1831 4219 
Q 1534 4219 1204 4116 
Q 875 4013 500 3803 
L 500 4441 
Q 881 4594 1212 4672 
Q 1544 4750 1819 4750 
Q 2544 4750 2975 4387 
Q 3406 4025 3406 3419 
Q 3406 3131 3298 2873 
Q 3191 2616 2906 2266 
Q 2828 2175 2409 1742 
Q 1991 1309 1228 531 
z
" transform="scale(0.015625)"/>
       </defs>
       <use xlink:href="#DejaVuSans-32"/>
       <use xlink:href="#DejaVuSans-2e" x="63.623047"/>
       <use xlink:href="#DejaVuSans-30" x="95.410156"/>
       <use xlink:href="#DejaVuSans-30" x="159.033203"/>
      </g>
     </g>
    </g>
    <g id="xtick_3">
     <g id="line2d_3">
      <g>
       <use xlink:href="#mfad9981c8b" x="270.276923" y="320.4" style="stroke: #000000; stroke-width: 0.8"/>
      </g>
     </g>
     <g id="text_3">
      <!-- 4.00 -->
      <g transform="translate(259.144111 334.998438) scale(0.1 -0.1)">
       <defs>
        <path id="DejaVuSans-34" d="M 2419 4116 
L 825 1625 
L 2419 1625 
L 2419 4116 
z
M 2253 4666 
L 3047 4666 
L 3047 1625 
L 3713 1625 
L 3713 1100 
L 3047 1100 
L 3047 0 
L 2419 0 
L 2419 1100 
L 313 1100 
L 313 1709 
L 2253 4666 
z
" transform="scale(0.015625)"/>
       </defs>
       <use xlink:href="#DejaVuSans-34"/>
       <use xlink:href="#DejaVuSans-2e" x="63.623047"/>
       <use xlink:href="#DejaVuSans-30" x="95.410156"/>
       <use xlink:href="#DejaVuSans-30" x="159.033203"/>
      </g>
     </g>
    </g>
    <g id="xtick_4">
     <g id="line2d_4">
      <g>
       <use xlink:href="#mfad9981c8b" x="356.123077" y="320.4" style="stroke: #000000; stroke-width: 0.8"/>
      </g>
     </g>
     <g id="text_4">
      <!-- 6.00 -->
      <g transform="translate(344.990264 334.998438) scale(0.1 -0.1)">
       <defs>
        <path id="DejaVuSans-36" d="M 2113 2584 
Q 1688 2584 1439 2293 
Q 1191 2003 1191 1497 
Q 1191 994 1439 701 
Q 1688 409 2113 409 
Q 2538 409 2786 701 
Q 3034 994 3034 1497 
Q 3034 2003 2786 2293 
Q 2538 2584 2113 2584 
z
M 3366 4563 
L 3366 3988 
Q 3128 4100 2886 4159 
Q 2644 4219 2406 4219 
Q 1781 4219 1451 3797 
Q 1122 3375 1075 2522 
Q 1259 2794 1537 2939 
Q 1816 3084 2150 3084 
Q 2853 3084 3261 2657 
Q 3669 2231 3669 1497 
Q 3669 778 3244 343 
Q 2819 -91 2113 -91 
Q 1303 -91 875 529 
Q 447 1150 447 2328 
Q 447 3434 972 4092 
Q 1497 4750 2381 4750 
Q 2619 4750 2861 4703 
Q 3103 4656 3366 4563 
z
" transform="scale(0.015625)"/>
       </defs>
       <use xlink:href="#DejaVuSans-36"/>
       <use xlink:href="#DejaVuSans-2e" x="63.623047"/>
       <use xlink:href="#DejaVuSans-30" x="95.410156"/>
       <use xlink:href="#DejaVuSans-30" x="159.033203"/>
      </g>
     </g>
    </g>
    <g id="xtick_5">
     <g id="line2d_5">
      <g>
       <use xlink:href="#mfad9981c8b" x="441.969231" y="320.4" style="stroke: #000000; stroke-width: 0.8"/>
      </g>
     </g>
     <g id="text_5">
      <!-- 8.00 -->
      <g transform="translate(430.836418 334.998438) scale(0.1 -0.1)">
       <defs>
        <path id="DejaVuSans-38" d="M 2034 2216 
Q 1584 2216 1326 1975 
Q 1069 1734 1069 1313 
Q 1069 891 1326 650 
Q 1584 409 2034 409 
Q 2484 409 2743 651 
Q 3003 894 3003 1313 
Q 3003 1734 2745 1975 
Q 2488 2216 2034 2216 
z
M 1403 2484 
Q 997 2584 770 2862 
Q 544 3141 544 3541 
Q 544 4100 942 4425 
Q 1341 4750 2034 4750 
Q 2731 4750 3128 4425 
Q 3525 4100 3525 3541 
Q 3525 3141 3298 2862 
Q 3072 2584 2669 2484 
Q 3125 2378 3379 2068 
Q 3634 1759 3634 1313 
Q 3634 634 3220 271 
Q 2806 -91 2034 -91 
Q 1263 -91 848 271 
Q 434 634 434 1313 
Q 434 1759 690 2068 
Q 947 2378 1403 2484 
z
M 1172 3481 
Q 1172 3119 1398 2916 
Q 1625 2713 2034 2713 
Q 2441 2713 2670 2916 
Q 2900 3119 2900 3481 
Q 2900 3844 2670 4047 
Q 2441 4250 2034 4250 
Q 1625 4250 1398 4047 
Q 1172 3844 1172 3481 
z
" transform="scale(0.015625)"/>
       </defs>
       <use xlink:href="#DejaVuSans-38"/>
       <use xlink:href="#DejaVuSans-2e" x="63.623047"/>
       <use xlink:href="#DejaVuSans-30" x="95.410156"/>
       <use xlink:href="#DejaVuSans-30" x="159.033203"/>
      </g>
     </g>
    </g>
    <g id="xtick_6">
     <g id="line2d_6">
      <g>
       <use xlink:href="#mfad9981c8b" x="527.815385" y="320.4" style="stroke: #000000; stroke-width: 0.8"/>
      </g>
     </g>
     <g id="text_6">
      <!-- 10.00 -->
      <g transform="translate(513.501322 334.998438) scale(0.1 -0.1)">
       <defs>
        <path id="DejaVuSans-31" d="M 794 531 
L 1825 531 
L 1825 4091 
L 703 3866 
L 703 4441 
L 1819 4666 
L 2450 4666 
L 2450 531 
L 3481 531 
L 3481 0 
L 794 0 
L 794 531 
z
" transform="scale(0.015625)"/>
       </defs>
       <use xlink:href="#DejaVuSans-31"/>
       <use xlink:href="#DejaVuSans-30" x="63.623047"/>
       <use xlink:href="#DejaVuSans-2e" x="127.246094"/>
       <use xlink:href="#DejaVuSans-30" x="159.033203"/>
       <use xlink:href="#DejaVuSans-30" x="222.65625"/>
      </g>
     </g>
    </g>
    <g id="xtick_7">
     <g id="line2d_7">
      <g>
       <use xlink:href="#mfad9981c8b" x="613.661538" y="320.4" style="stroke: #000000; stroke-width: 0.8"/>
      </g>
     </g>
     <g id="text_7">
      <!-- 12.00 -->
      <g transform="translate(599.347476 334.998438) scale(0.1 -0.1)">
       <use xlink:href="#DejaVuSans-31"/>
       <use xlink:href="#DejaVuSans-32" x="63.623047"/>
       <use xlink:href="#DejaVuSans-2e" x="127.246094"/>
       <use xlink:href="#DejaVuSans-30" x="159.033203"/>
       <use xlink:href="#DejaVuSans-30" x="222.65625"/>
      </g>
     </g>
    </g>
    <g id="xtick_8">
     <g id="line2d_8">
      <g>
       <use xlink:href="#mfad9981c8b" x="314.916923" y="320.4" style="stroke: #000000; stroke-width: 0.8"/>
      </g>
     </g>
     <g id="text_8">
      <!-- 5.04 -->
      <g transform="translate(303.784111 334.998438) scale(0.1 -0.1)">
       <defs>
        <path id="DejaVuSans-35" d="M 691 4666 
L 3169 4666 
L 3169 4134 
L 1269 4134 
L 1269 2991 
Q 1406 3038 1543 3061 
Q 1681 3084 1819 3084 
Q 2600 3084 3056 2656 
Q 3513 2228 3513 1497 
Q 3513 744 3044 326 
Q 2575 -91 1722 -91 
Q 1428 -91 1123 -41 
Q 819 9 494 109 
L 494 744 
Q 775 591 1075 516 
Q 1375 441 1709 441 
Q 2250 441 2565 725 
Q 2881 1009 2881 1497 
Q 2881 1984 2565 2268 
Q 2250 2553 1709 2553 
Q 1456 2553 1204 2497 
Q 953 2441 691 2322 
L 691 4666 
z
" transform="scale(0.015625)"/>
       </defs>
       <use xlink:href="#DejaVuSans-35"/>
       <use xlink:href="#DejaVuSans-2e" x="63.623047"/>
       <use xlink:href="#DejaVuSans-30" x="95.410156"/>
       <use xlink:href="#DejaVuSans-34" x="159.033203"/>
      </g>
     </g>
    </g>
    <g id="text_9">
     <!-- Time (t) -->
     <g transform="translate(349.315625 348.676562) scale(0.1 -0.1)">
      <defs>
       <path id="DejaVuSans-54" d="M -19 4666 
L 3928 4666 
L 3928 4134 
L 2272 4134 
L 2272 0 
L 1638 0 
L 1638 4134 
L -19 4134 
L -19 4666 
z
" transform="scale(0.015625)"/>
       <path id="DejaVuSans-69" d="M 603 3500 
L 1178 3500 
L 1178 0 
L 603 0 
L 603 3500 
z
M 603 4863 
L 1178 4863 
L 1178 4134 
L 603 4134 
L 603 4863 
z
" transform="scale(0.015625)"/>
       <path id="DejaVuSans-6d" d="M 3328 2828 
Q 3544 3216 3844 3400 
Q 4144 3584 4550 3584 
Q 5097 3584 5394 3201 
Q 5691 2819 5691 2113 
L 5691 0 
L 5113 0 
L 5113 2094 
Q 5113 2597 4934 2840 
Q 4756 3084 4391 3084 
Q 3944 3084 3684 2787 
Q 3425 2491 3425 1978 
L 3425 0 
L 2847 0 
L 2847 2094 
Q 2847 2600 2669 2842 
Q 2491 3084 2119 3084 
Q 1678 3084 1418 2786 
Q 1159 2488 1159 1978 
L 1159 0 
L 581 0 
L 581 3500 
L 1159 3500 
L 1159 2956 
Q 1356 3278 1631 3431 
Q 1906 3584 2284 3584 
Q 2666 3584 2933 3390 
Q 3200 3197 3328 2828 
z
" transform="scale(0.015625)"/>
       <path id="DejaVuSans-65" d="M 3597 1894 
L 3597 1613 
L 953 1613 
Q 991 1019 1311 708 
Q 1631 397 2203 397 
Q 2534 397 2845 478 
Q 3156 559 3463 722 
L 3463 178 
Q 3153 47 2828 -22 
Q 2503 -91 2169 -91 
Q 1331 -91 842 396 
Q 353 884 353 1716 
Q 353 2575 817 3079 
Q 1281 3584 2069 3584 
Q 2775 3584 3186 3129 
Q 3597 2675 3597 1894 
z
M 3022 2063 
Q 3016 2534 2758 2815 
Q 2500 3097 2075 3097 
Q 1594 3097 1305 2825 
Q 1016 2553 972 2059 
L 3022 2063 
z
" transform="scale(0.015625)"/>
       <path id="DejaVuSans-20" transform="scale(0.015625)"/>
       <path id="DejaVuSans-28" d="M 1984 4856 
Q 1566 4138 1362 3434 
Q 1159 2731 1159 2009 
Q 1159 1288 1364 580 
Q 1569 -128 1984 -844 
L 1484 -844 
Q 1016 -109 783 600 
Q 550 1309 550 2009 
Q 550 2706 781 3412 
Q 1013 4119 1484 4856 
L 1984 4856 
z
" transform="scale(0.015625)"/>
       <path id="DejaVuSans-74" d="M 1172 4494 
L 1172 3500 
L 2356 3500 
L 2356 3053 
L 1172 3053 
L 1172 1153 
Q 1172 725 1289 603 
Q 1406 481 1766 481 
L 2356 481 
L 2356 0 
L 1766 0 
Q 1100 0 847 248 
Q 594 497 594 1153 
L 594 3053 
L 172 3053 
L 172 3500 
L 594 3500 
L 594 4494 
L 1172 4494 
z
" transform="scale(0.015625)"/>
       <path id="DejaVuSans-29" d="M 513 4856 
L 1013 4856 
Q 1481 4119 1714 3412 
Q 1947 2706 1947 2009 
Q 1947 1309 1714 600 
Q 1481 -109 1013 -844 
L 513 -844 
Q 928 -128 1133 580 
Q 1338 1288 1338 2009 
Q 1338 2731 1133 3434 
Q 928 4138 513 4856 
z
" transform="scale(0.015625)"/>
      </defs>
      <use xlink:href="#DejaVuSans-54"/>
      <use xlink:href="#DejaVuSans-69" x="57.958984"/>
      <use xlink:href="#DejaVuSans-6d" x="85.742188"/>
      <use xlink:href="#DejaVuSans-65" x="183.154297"/>
      <use xlink:href="#DejaVuSans-20" x="244.677734"/>
      <use xlink:href="#DejaVuSans-28" x="276.464844"/>
      <use xlink:href="#DejaVuSans-74" x="315.478516"/>
      <use xlink:href="#DejaVuSans-29" x="354.6875"/>
     </g>
    </g>
   </g>
   <g id="matplotlib.axis_2">
    <g id="ytick_1">
     <g id="line2d_9">
      <defs>
       <path id="m73246919be" d="M 0 0 
L -3.5 0 
" style="stroke: #000000; stroke-width: 0.8"/>
      </defs>
      <g>
       <use xlink:href="#m73246919be" x="90" y="307.8" style="stroke: #000000; stroke-width: 0.8"/>
      </g>
     </g>
     <g id="text_10">
      <!-- −0.75 -->
      <g transform="translate(52.354687 311.599219) scale(0.1 -0.1)">
       <defs>
        <path id="DejaVuSans-2212" d="M 678 2272 
L 4684 2272 
L 4684 1741 
L 678 1741 
L 678 2272 
z
" transform="scale(0.015625)"/>
        <path id="DejaVuSans-37" d="M 525 4666 
L 3525 4666 
L 3525 4397 
L 1831 0 
L 1172 0 
L 2766 4134 
L 525 4134 
L 525 4666 
z
" transform="scale(0.015625)"/>
       </defs>
       <use xlink:href="#DejaVuSans-2212"/>
       <use xlink:href="#DejaVuSans-30" x="83.789062"/>
       <use xlink:href="#DejaVuSans-2e" x="147.412109"/>
       <use xlink:href="#DejaVuSans-37" x="179.199219"/>
       <use xlink:href="#DejaVuSans-35" x="242.822266"/>
      </g>
     </g>
    </g>
    <g id="ytick_2">
     <g id="line2d_10">
      <g>
       <use xlink:href="#m73246919be" x="90" y="271.49293" style="stroke: #000000; stroke-width: 0.8"/>
      </g>
     </g>
     <g id="text_11">
      <!-- −0.50 -->
      <g transform="translate(52.354687 275.292148) scale(0.1 -0.1)">
       <use xlink:href="#DejaVuSans-2212"/>
       <use xlink:href="#DejaVuSans-30" x="83.789062"/>
       <use xlink:href="#DejaVuSans-2e" x="147.412109"/>
       <use xlink:href="#DejaVuSans-35" x="179.199219"/>
       <use xlink:href="#DejaVuSans-30" x="242.822266"/>
      </g>
     </g>
    </g>
    <g id="ytick_3">
     <g id="line2d_11">
      <g>
       <use xlink:href="#m73246919be" x="90" y="235.185859" style="stroke: #000000; stroke-width: 0.8"/>
      </g>
     </g>
     <g id="text_12">
      <!-- −0.25 -->
      <g transform="translate(52.354687 238.985078) scale(0.1 -0.1)">
       <use xlink:href="#DejaVuSans-2212"/>
       <use xlink:href="#DejaVuSans-30" x="83.789062"/>
       <use xlink:href="#DejaVuSans-2e" x="147.412109"/>
       <use xlink:href="#DejaVuSans-32" x="179.199219"/>
       <use xlink:href="#DejaVuSans-35" x="242.822266"/>
      </g>
     </g>
    </g>
    <g id="ytick_4">
     <g id="line2d_12">
      <g>
       <use xlink:href="#m73246919be" x="90" y="198.878789" style="stroke: #000000; stroke-width: 0.8"/>
      </g>
     </g>
     <g id="text_13">
      <!-- 0.00 -->
      <g transform="translate(60.734375 202.678008) scale(0.1 -0.1)">
       <use xlink:href="#DejaVuSans-30"/>
       <use xlink:href="#DejaVuSans-2e" x="63.623047"/>
       <use xlink:href="#DejaVuSans-30" x="95.410156"/>
       <use xlink:href="#DejaVuSans-30" x="159.033203"/>
      </g>
     </g>
    </g>
    <g id="ytick_5">
     <g id="line2d_13">
      <g>
       <use xlink:href="#m73246919be" x="90" y="162.571719" style="stroke: #000000; stroke-width: 0.8"/>
      </g>
     </g>
     <g id="text_14">
      <!-- 0.25 -->
      <g transform="translate(60.734375 166.370938) scale(0.1 -0.1)">
       <use xlink:href="#DejaVuSans-30"/>
       <use xlink:href="#DejaVuSans-2e" x="63.623047"/>
       <use xlink:href="#DejaVuSans-32" x="95.410156"/>
       <use xlink:href="#DejaVuSans-35" x="159.033203"/>
      </g>
     </g>
    </g>
    <g id="ytick_6">
     <g id="line2d_14">
      <g>
       <use xlink:href="#m73246919be" x="90" y="126.264649" style="stroke: #000000; stroke-width: 0.8"/>
      </g>
     </g>
     <g id="text_15">
      <!-- 0.50 -->
      <g transform="translate(60.734375 130.063867) scale(0.1 -0.1)">
       <use xlink:href="#DejaVuSans-30"/>
       <use xlink:href="#DejaVuSans-2e" x="63.623047"/>
       <use xlink:href="#DejaVuSans-35" x="95.410156"/>
       <use xlink:href="#DejaVuSans-30" x="159.033203"/>
      </g>
     </g>
    </g>
    <g id="ytick_7">
     <g id="line2d_15">
      <g>
       <use xlink:href="#m73246919be" x="90" y="89.957578" style="stroke: #000000; stroke-width: 0.8"/>
      </g>
     </g>
     <g id="text_16">
      <!-- 0.75 -->
      <g transform="translate(60.734375 93.756797) scale(0.1 -0.1)">
       <use xlink:href="#DejaVuSans-30"/>
       <use xlink:href="#DejaVuSans-2e" x="63.623047"/>
       <use xlink:href="#DejaVuSans-37" x="95.410156"/>
       <use xlink:href="#DejaVuSans-35" x="159.033203"/>
      </g>
     </g>
    </g>
    <g id="ytick_8">
     <g id="line2d_16">
      <g>
       <use xlink:href="#m73246919be" x="90" y="53.650508" style="stroke: #000000; stroke-width: 0.8"/>
      </g>
     </g>
     <g id="text_17">
      <!-- 1.00 -->
      <g transform="translate(60.734375 57.449727) scale(0.1 -0.1)">
       <use xlink:href="#DejaVuSans-31"/>
       <use xlink:href="#DejaVuSans-2e" x="63.623047"/>
       <use xlink:href="#DejaVuSans-30" x="95.410156"/>
       <use xlink:href="#DejaVuSans-30" x="159.033203"/>
      </g>
     </g>
    </g>
    <g id="text_18">
     <!-- y(t) -->
     <g transform="translate(46.275 190.621094) rotate(-90) scale(0.1 -0.1)">
      <defs>
       <path id="DejaVuSans-79" d="M 2059 -325 
Q 1816 -950 1584 -1140 
Q 1353 -1331 966 -1331 
L 506 -1331 
L 506 -850 
L 844 -850 
Q 1081 -850 1212 -737 
Q 1344 -625 1503 -206 
L 1606 56 
L 191 3500 
L 800 3500 
L 1894 763 
L 2988 3500 
L 3597 3500 
L 2059 -325 
z
" transform="scale(0.015625)"/>
      </defs>
      <use xlink:href="#DejaVuSans-79"/>
      <use xlink:href="#DejaVuSans-28" x="59.179688"/>
      <use xlink:href="#DejaVuSans-74" x="98.193359"/>
      <use xlink:href="#DejaVuSans-29" x="137.402344"/>
     </g>
    </g>
   </g>
   <g id="line2d_17">
    <path d="M 98.584615 199.220102 
L 102.447692 197.260289 
L 105.023077 196.217547 
L 107.598462 195.453013 
L 110.603077 194.83463 
L 114.036923 194.138048 
L 115.753846 193.606161 
L 117.470769 192.834738 
L 118.758462 192.050823 
L 120.046154 191.061023 
L 121.333846 189.847945 
L 123.050769 187.87413 
L 124.767692 185.514581 
L 126.913846 182.125523 
L 132.923077 172.160538 
L 134.64 169.93307 
L 135.927692 168.646153 
L 137.215385 167.755285 
L 138.073846 167.404595 
L 138.932308 167.26007 
L 139.790769 167.327693 
L 140.649231 167.609756 
L 141.507692 168.10481 
L 142.366154 168.807715 
L 143.653846 170.231909 
L 144.941538 172.060743 
L 146.658462 175.029617 
L 148.804615 179.365571 
L 152.667692 187.926082 
L 156.101538 195.316282 
L 159.106154 201.251184 
L 165.973846 214.454332 
L 168.549231 220.058286 
L 171.983077 228.169629 
L 174.987692 235.174429 
L 176.704615 238.696787 
L 177.992308 240.922356 
L 179.28 242.676459 
L 180.138462 243.536813 
L 180.996923 244.120863 
L 181.855385 244.40773 
L 182.713846 244.380848 
L 183.572308 244.028497 
L 184.430769 243.344232 
L 185.289231 242.327163 
L 186.147692 240.982104 
L 187.435385 238.374041 
L 188.723077 235.11148 
L 190.010769 231.278402 
L 191.727692 225.465026 
L 194.303077 215.847498 
L 197.736923 203.022775 
L 199.453846 197.273419 
L 201.170769 192.275132 
L 202.458462 189.11242 
L 203.746154 186.494846 
L 205.033846 184.436396 
L 206.321538 182.930021 
L 207.18 182.220566 
L 208.038462 181.734063 
L 208.896923 181.456638 
L 209.755385 181.372484 
L 210.613846 181.464413 
L 211.901538 181.892921 
L 213.189231 182.615302 
L 214.476923 183.57187 
L 216.193846 185.118183 
L 218.769231 187.809026 
L 222.203077 191.757644 
L 225.636923 195.993392 
L 228.641538 200.044003 
L 231.216923 203.881034 
L 233.792308 208.089921 
L 237.226154 214.154324 
L 241.947692 222.503444 
L 244.093846 225.850565 
L 245.810769 228.135409 
L 247.098462 229.555804 
L 248.386154 230.683871 
L 249.673846 231.488009 
L 250.961538 231.942468 
L 251.82 232.041377 
L 252.678462 231.972125 
L 253.536923 231.732028 
L 254.395385 231.31974 
L 255.683077 230.378676 
L 256.970769 229.055264 
L 258.258462 227.359906 
L 259.546154 225.307603 
L 261.263077 222.048441 
L 262.98 218.238441 
L 264.696923 213.931374 
L 266.843077 207.929115 
L 269.418462 199.94289 
L 271.993846 191.229488 
L 274.998462 180.286828 
L 278.432308 166.93255 
L 283.153846 147.531686 
L 290.88 115.583943 
L 293.884615 104.085837 
L 296.46 95.011603 
L 299.035385 86.815804 
L 301.181538 80.735869 
L 303.327692 75.387663 
L 305.044615 71.662289 
L 306.761538 68.450495 
L 308.478462 65.77544 
L 309.766154 64.137913 
L 311.053846 62.831544 
L 312.341538 61.871659 
L 313.629231 61.274874 
L 314.487692 61.087297 
L 315.346154 61.073978 
L 316.204615 61.239968 
L 317.063077 61.590069 
L 317.921538 62.128701 
L 318.78 62.859758 
L 320.067692 64.323992 
L 321.355385 66.235664 
L 322.643077 68.597209 
L 323.930769 71.405323 
L 325.647692 75.826598 
L 327.364615 80.982937 
L 329.081538 86.812746 
L 331.227692 94.923034 
L 333.803077 105.607647 
L 337.666154 122.803857 
L 344.104615 151.609971 
L 347.538462 165.828808 
L 350.543077 177.25722 
L 353.118462 186.229305 
L 355.693846 194.417426 
L 358.269231 201.80317 
L 360.415385 207.322515 
L 362.561538 212.23353 
L 364.278462 215.699189 
L 365.995385 218.73 
L 367.712308 221.304805 
L 369.429231 223.40496 
L 370.716923 224.659931 
L 372.004615 225.636283 
L 373.292308 226.332754 
L 374.58 226.750644 
L 375.867692 226.893906 
L 377.155385 226.76913 
L 378.443077 226.38543 
L 379.730769 225.75425 
L 381.018462 224.889112 
L 382.735385 223.398356 
L 384.452308 221.559406 
L 386.169231 219.416169 
L 388.315385 216.380257 
L 390.890769 212.339265 
L 395.183077 205.079974 
L 399.904615 197.163005 
L 402.48 193.220804 
L 404.626154 190.26635 
L 406.772308 187.671534 
L 408.918462 185.465324 
L 410.635385 183.981236 
L 412.352308 182.73313 
L 414.498462 181.467585 
L 416.644615 180.470011 
L 419.22 179.530903 
L 422.224615 178.67901 
L 424.8 178.142393 
L 426.946154 177.907724 
L 428.663077 177.950966 
L 429.950769 178.179503 
L 431.238462 178.628801 
L 432.526154 179.35063 
L 433.813846 180.398006 
L 435.101538 181.822087 
L 436.389231 183.66875 
L 437.676923 185.975027 
L 438.964615 188.765618 
L 440.252308 192.049699 
L 441.969231 197.17766 
L 443.686154 203.087065 
L 445.832308 211.346974 
L 452.7 238.836924 
L 454.416923 244.371381 
L 455.704615 247.795006 
L 456.992308 250.485626 
L 457.850769 251.834263 
L 458.709231 252.807609 
L 459.567692 253.395308 
L 460.426154 253.592654 
L 461.284615 253.400661 
L 462.143077 252.82601 
L 463.001538 251.880873 
L 463.86 250.582616 
L 464.718462 248.953398 
L 466.006154 245.947928 
L 467.293846 242.362474 
L 469.010769 236.885006 
L 471.586154 227.789277 
L 475.449231 214.117715 
L 477.595385 207.395082 
L 479.312308 202.749554 
L 481.029231 198.851717 
L 482.316923 196.439173 
L 483.604615 194.459933 
L 484.892308 192.895597 
L 486.18 191.717157 
L 487.467692 190.887476 
L 488.755385 190.363645 
L 490.043077 190.099074 
L 491.330769 190.045261 
L 493.047692 190.216659 
L 495.623077 190.763441 
L 498.627692 191.406418 
L 500.344615 191.583127 
L 502.061538 191.511075 
L 503.349231 191.248486 
L 504.636923 190.778078 
L 505.924615 190.080302 
L 507.212308 189.143078 
L 508.5 187.963096 
L 510.216923 186.025214 
L 511.933846 183.715019 
L 514.08 180.432641 
L 519.230769 172.275466 
L 520.947692 170.060173 
L 522.235385 168.747584 
L 523.523077 167.807665 
L 524.381538 167.415796 
L 525.24 167.227325 
L 526.098462 167.252219 
L 526.956923 167.497098 
L 527.815385 167.965018 
L 528.673846 168.655344 
L 529.532308 169.563694 
L 530.82 171.316323 
L 532.107692 173.49821 
L 533.824615 176.971729 
L 535.970769 181.967059 
L 541.98 196.456472 
L 543.696923 199.866367 
L 544.984615 202.033 
L 546.272308 203.822827 
L 547.56 205.215533 
L 548.847692 206.206648 
L 549.706154 206.648856 
L 550.564615 206.923366 
L 551.423077 207.03897 
L 552.710769 206.938594 
L 553.998462 206.548805 
L 555.286154 205.918851 
L 557.003077 204.795994 
L 559.578462 202.756259 
L 563.870769 199.292917 
L 566.016923 197.839562 
L 568.163077 196.671315 
L 570.309231 195.80032 
L 572.455385 195.202975 
L 574.601538 194.835132 
L 577.176923 194.626554 
L 580.181538 194.61356 
L 583.615385 194.825831 
L 587.049231 195.271393 
L 590.053846 195.880469 
L 593.058462 196.708684 
L 596.492308 197.888854 
L 607.223077 201.790631 
L 610.227692 202.551087 
L 613.232308 203.098649 
L 616.666154 203.499504 
L 620.958462 203.758733 
L 626.109231 203.835471 
L 630.830769 203.694374 
L 635.123077 203.34628 
L 638.986154 202.843385 
L 638.986154 202.843385 
" clip-path="url(#p876d607f70)" style="fill: none; stroke: #008000; stroke-width: 1.5; stroke-linecap: square"/>
   </g>
   <g id="line2d_18">
    <path d="M 314.916923 320.4 
L 314.916923 43.2 
" clip-path="url(#p876d607f70)" style="fill: none; stroke-dasharray: 5.55,2.4; stroke-dashoffset: 0; stroke: #0000ff; stroke-width: 1.5"/>
   </g>
   <g id="line2d_19">
    <path d="M 317.492308 320.4 
L 317.492308 43.2 
" clip-path="url(#p876d607f70)" style="fill: none; stroke-dasharray: 5.55,2.4; stroke-dashoffset: 0; stroke: #ff0000; stroke-width: 1.5"/>
   </g>
   <g id="patch_3">
    <path d="M 90 320.4 
L 90 43.2 
" style="fill: none; stroke: #000000; stroke-width: 0.8; stroke-linejoin: miter; stroke-linecap: square"/>
   </g>
   <g id="patch_4">
    <path d="M 648 320.4 
L 648 43.2 
" style="fill: none; stroke: #000000; stroke-width: 0.8; stroke-linejoin: miter; stroke-linecap: square"/>
   </g>
   <g id="patch_5">
    <path d="M 90 320.4 
L 648 320.4 
" style="fill: none; stroke: #000000; stroke-width: 0.8; stroke-linejoin: miter; stroke-linecap: square"/>
   </g>
   <g id="patch_6">
    <path d="M 90 43.2 
L 648 43.2 
" style="fill: none; stroke: #000000; stroke-width: 0.8; stroke-linejoin: miter; stroke-linecap: square"/>
   </g>
   <g id="text_19">
    <!-- Kernel Ridge Regression fit, C = 0.2, sigma = 0.5 -->
    <g transform="translate(221.630625 37.2) scale(0.12 -0.12)">
     <defs>
      <path id="DejaVuSans-4b" d="M 628 4666 
L 1259 4666 
L 1259 2694 
L 3353 4666 
L 4166 4666 
L 1850 2491 
L 4331 0 
L 3500 0 
L 1259 2247 
L 1259 0 
L 628 0 
L 628 4666 
z
" transform="scale(0.015625)"/>
      <path id="DejaVuSans-72" d="M 2631 2963 
Q 2534 3019 2420 3045 
Q 2306 3072 2169 3072 
Q 1681 3072 1420 2755 
Q 1159 2438 1159 1844 
L 1159 0 
L 581 0 
L 581 3500 
L 1159 3500 
L 1159 2956 
Q 1341 3275 1631 3429 
Q 1922 3584 2338 3584 
Q 2397 3584 2469 3576 
Q 2541 3569 2628 3553 
L 2631 2963 
z
" transform="scale(0.015625)"/>
      <path id="DejaVuSans-6e" d="M 3513 2113 
L 3513 0 
L 2938 0 
L 2938 2094 
Q 2938 2591 2744 2837 
Q 2550 3084 2163 3084 
Q 1697 3084 1428 2787 
Q 1159 2491 1159 1978 
L 1159 0 
L 581 0 
L 581 3500 
L 1159 3500 
L 1159 2956 
Q 1366 3272 1645 3428 
Q 1925 3584 2291 3584 
Q 2894 3584 3203 3211 
Q 3513 2838 3513 2113 
z
" transform="scale(0.015625)"/>
      <path id="DejaVuSans-6c" d="M 603 4863 
L 1178 4863 
L 1178 0 
L 603 0 
L 603 4863 
z
" transform="scale(0.015625)"/>
      <path id="DejaVuSans-52" d="M 2841 2188 
Q 3044 2119 3236 1894 
Q 3428 1669 3622 1275 
L 4263 0 
L 3584 0 
L 2988 1197 
Q 2756 1666 2539 1819 
Q 2322 1972 1947 1972 
L 1259 1972 
L 1259 0 
L 628 0 
L 628 4666 
L 2053 4666 
Q 2853 4666 3247 4331 
Q 3641 3997 3641 3322 
Q 3641 2881 3436 2590 
Q 3231 2300 2841 2188 
z
M 1259 4147 
L 1259 2491 
L 2053 2491 
Q 2509 2491 2742 2702 
Q 2975 2913 2975 3322 
Q 2975 3731 2742 3939 
Q 2509 4147 2053 4147 
L 1259 4147 
z
" transform="scale(0.015625)"/>
      <path id="DejaVuSans-64" d="M 2906 2969 
L 2906 4863 
L 3481 4863 
L 3481 0 
L 2906 0 
L 2906 525 
Q 2725 213 2448 61 
Q 2172 -91 1784 -91 
Q 1150 -91 751 415 
Q 353 922 353 1747 
Q 353 2572 751 3078 
Q 1150 3584 1784 3584 
Q 2172 3584 2448 3432 
Q 2725 3281 2906 2969 
z
M 947 1747 
Q 947 1113 1208 752 
Q 1469 391 1925 391 
Q 2381 391 2643 752 
Q 2906 1113 2906 1747 
Q 2906 2381 2643 2742 
Q 2381 3103 1925 3103 
Q 1469 3103 1208 2742 
Q 947 2381 947 1747 
z
" transform="scale(0.015625)"/>
      <path id="DejaVuSans-67" d="M 2906 1791 
Q 2906 2416 2648 2759 
Q 2391 3103 1925 3103 
Q 1463 3103 1205 2759 
Q 947 2416 947 1791 
Q 947 1169 1205 825 
Q 1463 481 1925 481 
Q 2391 481 2648 825 
Q 2906 1169 2906 1791 
z
M 3481 434 
Q 3481 -459 3084 -895 
Q 2688 -1331 1869 -1331 
Q 1566 -1331 1297 -1286 
Q 1028 -1241 775 -1147 
L 775 -588 
Q 1028 -725 1275 -790 
Q 1522 -856 1778 -856 
Q 2344 -856 2625 -561 
Q 2906 -266 2906 331 
L 2906 616 
Q 2728 306 2450 153 
Q 2172 0 1784 0 
Q 1141 0 747 490 
Q 353 981 353 1791 
Q 353 2603 747 3093 
Q 1141 3584 1784 3584 
Q 2172 3584 2450 3431 
Q 2728 3278 2906 2969 
L 2906 3500 
L 3481 3500 
L 3481 434 
z
" transform="scale(0.015625)"/>
      <path id="DejaVuSans-73" d="M 2834 3397 
L 2834 2853 
Q 2591 2978 2328 3040 
Q 2066 3103 1784 3103 
Q 1356 3103 1142 2972 
Q 928 2841 928 2578 
Q 928 2378 1081 2264 
Q 1234 2150 1697 2047 
L 1894 2003 
Q 2506 1872 2764 1633 
Q 3022 1394 3022 966 
Q 3022 478 2636 193 
Q 2250 -91 1575 -91 
Q 1294 -91 989 -36 
Q 684 19 347 128 
L 347 722 
Q 666 556 975 473 
Q 1284 391 1588 391 
Q 1994 391 2212 530 
Q 2431 669 2431 922 
Q 2431 1156 2273 1281 
Q 2116 1406 1581 1522 
L 1381 1569 
Q 847 1681 609 1914 
Q 372 2147 372 2553 
Q 372 3047 722 3315 
Q 1072 3584 1716 3584 
Q 2034 3584 2315 3537 
Q 2597 3491 2834 3397 
z
" transform="scale(0.015625)"/>
      <path id="DejaVuSans-6f" d="M 1959 3097 
Q 1497 3097 1228 2736 
Q 959 2375 959 1747 
Q 959 1119 1226 758 
Q 1494 397 1959 397 
Q 2419 397 2687 759 
Q 2956 1122 2956 1747 
Q 2956 2369 2687 2733 
Q 2419 3097 1959 3097 
z
M 1959 3584 
Q 2709 3584 3137 3096 
Q 3566 2609 3566 1747 
Q 3566 888 3137 398 
Q 2709 -91 1959 -91 
Q 1206 -91 779 398 
Q 353 888 353 1747 
Q 353 2609 779 3096 
Q 1206 3584 1959 3584 
z
" transform="scale(0.015625)"/>
      <path id="DejaVuSans-66" d="M 2375 4863 
L 2375 4384 
L 1825 4384 
Q 1516 4384 1395 4259 
Q 1275 4134 1275 3809 
L 1275 3500 
L 2222 3500 
L 2222 3053 
L 1275 3053 
L 1275 0 
L 697 0 
L 697 3053 
L 147 3053 
L 147 3500 
L 697 3500 
L 697 3744 
Q 697 4328 969 4595 
Q 1241 4863 1831 4863 
L 2375 4863 
z
" transform="scale(0.015625)"/>
      <path id="DejaVuSans-2c" d="M 750 794 
L 1409 794 
L 1409 256 
L 897 -744 
L 494 -744 
L 750 256 
L 750 794 
z
" transform="scale(0.015625)"/>
      <path id="DejaVuSans-43" d="M 4122 4306 
L 4122 3641 
Q 3803 3938 3442 4084 
Q 3081 4231 2675 4231 
Q 1875 4231 1450 3742 
Q 1025 3253 1025 2328 
Q 1025 1406 1450 917 
Q 1875 428 2675 428 
Q 3081 428 3442 575 
Q 3803 722 4122 1019 
L 4122 359 
Q 3791 134 3420 21 
Q 3050 -91 2638 -91 
Q 1578 -91 968 557 
Q 359 1206 359 2328 
Q 359 3453 968 4101 
Q 1578 4750 2638 4750 
Q 3056 4750 3426 4639 
Q 3797 4528 4122 4306 
z
" transform="scale(0.015625)"/>
      <path id="DejaVuSans-3d" d="M 678 2906 
L 4684 2906 
L 4684 2381 
L 678 2381 
L 678 2906 
z
M 678 1631 
L 4684 1631 
L 4684 1100 
L 678 1100 
L 678 1631 
z
" transform="scale(0.015625)"/>
      <path id="DejaVuSans-61" d="M 2194 1759 
Q 1497 1759 1228 1600 
Q 959 1441 959 1056 
Q 959 750 1161 570 
Q 1363 391 1709 391 
Q 2188 391 2477 730 
Q 2766 1069 2766 1631 
L 2766 1759 
L 2194 1759 
z
M 3341 1997 
L 3341 0 
L 2766 0 
L 2766 531 
Q 2569 213 2275 61 
Q 1981 -91 1556 -91 
Q 1019 -91 701 211 
Q 384 513 384 1019 
Q 384 1609 779 1909 
Q 1175 2209 1959 2209 
L 2766 2209 
L 2766 2266 
Q 2766 2663 2505 2880 
Q 2244 3097 1772 3097 
Q 1472 3097 1187 3025 
Q 903 2953 641 2809 
L 641 3341 
Q 956 3463 1253 3523 
Q 1550 3584 1831 3584 
Q 2591 3584 2966 3190 
Q 3341 2797 3341 1997 
z
" transform="scale(0.015625)"/>
     </defs>
     <use xlink:href="#DejaVuSans-4b"/>
     <use xlink:href="#DejaVuSans-65" x="60.576172"/>
     <use xlink:href="#DejaVuSans-72" x="122.099609"/>
     <use xlink:href="#DejaVuSans-6e" x="161.462891"/>
     <use xlink:href="#DejaVuSans-65" x="224.841797"/>
     <use xlink:href="#DejaVuSans-6c" x="286.365234"/>
     <use xlink:href="#DejaVuSans-20" x="314.148438"/>
     <use xlink:href="#DejaVuSans-52" x="345.935547"/>
     <use xlink:href="#DejaVuSans-69" x="415.417969"/>
     <use xlink:href="#DejaVuSans-64" x="443.201172"/>
     <use xlink:href="#DejaVuSans-67" x="506.677734"/>
     <use xlink:href="#DejaVuSans-65" x="570.154297"/>
     <use xlink:href="#DejaVuSans-20" x="631.677734"/>
     <use xlink:href="#DejaVuSans-52" x="663.464844"/>
     <use xlink:href="#DejaVuSans-65" x="728.447266"/>
     <use xlink:href="#DejaVuSans-67" x="789.970703"/>
     <use xlink:href="#DejaVuSans-72" x="853.447266"/>
     <use xlink:href="#DejaVuSans-65" x="892.310547"/>
     <use xlink:href="#DejaVuSans-73" x="953.833984"/>
     <use xlink:href="#DejaVuSans-73" x="1005.933594"/>
     <use xlink:href="#DejaVuSans-69" x="1058.033203"/>
     <use xlink:href="#DejaVuSans-6f" x="1085.816406"/>
     <use xlink:href="#DejaVuSans-6e" x="1146.998047"/>
     <use xlink:href="#DejaVuSans-20" x="1210.376953"/>
     <use xlink:href="#DejaVuSans-66" x="1242.164062"/>
     <use xlink:href="#DejaVuSans-69" x="1277.369141"/>
     <use xlink:href="#DejaVuSans-74" x="1305.152344"/>
     <use xlink:href="#DejaVuSans-2c" x="1344.361328"/>
     <use xlink:href="#DejaVuSans-20" x="1376.148438"/>
     <use xlink:href="#DejaVuSans-43" x="1407.935547"/>
     <use xlink:href="#DejaVuSans-20" x="1477.759766"/>
     <use xlink:href="#DejaVuSans-3d" x="1509.546875"/>
     <use xlink:href="#DejaVuSans-20" x="1593.335938"/>
     <use xlink:href="#DejaVuSans-30" x="1625.123047"/>
     <use xlink:href="#DejaVuSans-2e" x="1688.746094"/>
     <use xlink:href="#DejaVuSans-32" x="1720.533203"/>
     <use xlink:href="#DejaVuSans-2c" x="1784.15625"/>
     <use xlink:href="#DejaVuSans-20" x="1815.943359"/>
     <use xlink:href="#DejaVuSans-73" x="1847.730469"/>
     <use xlink:href="#DejaVuSans-69" x="1899.830078"/>
     <use xlink:href="#DejaVuSans-67" x="1927.613281"/>
     <use xlink:href="#DejaVuSans-6d" x="1991.089844"/>
     <use xlink:href="#DejaVuSans-61" x="2088.501953"/>
     <use xlink:href="#DejaVuSans-20" x="2149.78125"/>
     <use xlink:href="#DejaVuSans-3d" x="2181.568359"/>
     <use xlink:href="#DejaVuSans-20" x="2265.357422"/>
     <use xlink:href="#DejaVuSans-30" x="2297.144531"/>
     <use xlink:href="#DejaVuSans-2e" x="2360.767578"/>
     <use xlink:href="#DejaVuSans-35" x="2392.554688"/>
    </g>
   </g>
   <g id="legend_1">
    <g id="patch_7">
     <path d="M 467.45 109.9125 
L 641 109.9125 
Q 643 109.9125 643 107.9125 
L 643 50.2 
Q 643 48.2 641 48.2 
L 467.45 48.2 
Q 465.45 48.2 465.45 50.2 
L 465.45 107.9125 
Q 465.45 109.9125 467.45 109.9125 
z
" style="fill: #ffffff; opacity: 0.8; stroke: #cccccc; stroke-linejoin: miter"/>
    </g>
    <g id="line2d_20">
     <path d="M 469.45 56.298437 
L 479.45 56.298437 
L 489.45 56.298437 
" style="fill: none; stroke: #008000; stroke-width: 1.5; stroke-linecap: square"/>
    </g>
    <g id="text_20">
     <!-- reconstructed signal -->
     <g transform="translate(497.45 59.798437) scale(0.1 -0.1)">
      <defs>
       <path id="DejaVuSans-63" d="M 3122 3366 
L 3122 2828 
Q 2878 2963 2633 3030 
Q 2388 3097 2138 3097 
Q 1578 3097 1268 2742 
Q 959 2388 959 1747 
Q 959 1106 1268 751 
Q 1578 397 2138 397 
Q 2388 397 2633 464 
Q 2878 531 3122 666 
L 3122 134 
Q 2881 22 2623 -34 
Q 2366 -91 2075 -91 
Q 1284 -91 818 406 
Q 353 903 353 1747 
Q 353 2603 823 3093 
Q 1294 3584 2113 3584 
Q 2378 3584 2631 3529 
Q 2884 3475 3122 3366 
z
" transform="scale(0.015625)"/>
       <path id="DejaVuSans-75" d="M 544 1381 
L 544 3500 
L 1119 3500 
L 1119 1403 
Q 1119 906 1312 657 
Q 1506 409 1894 409 
Q 2359 409 2629 706 
Q 2900 1003 2900 1516 
L 2900 3500 
L 3475 3500 
L 3475 0 
L 2900 0 
L 2900 538 
Q 2691 219 2414 64 
Q 2138 -91 1772 -91 
Q 1169 -91 856 284 
Q 544 659 544 1381 
z
M 1991 3584 
L 1991 3584 
z
" transform="scale(0.015625)"/>
      </defs>
      <use xlink:href="#DejaVuSans-72"/>
      <use xlink:href="#DejaVuSans-65" x="38.863281"/>
      <use xlink:href="#DejaVuSans-63" x="100.386719"/>
      <use xlink:href="#DejaVuSans-6f" x="155.367188"/>
      <use xlink:href="#DejaVuSans-6e" x="216.548828"/>
      <use xlink:href="#DejaVuSans-73" x="279.927734"/>
      <use xlink:href="#DejaVuSans-74" x="332.027344"/>
      <use xlink:href="#DejaVuSans-72" x="371.236328"/>
      <use xlink:href="#DejaVuSans-75" x="412.349609"/>
      <use xlink:href="#DejaVuSans-63" x="475.728516"/>
      <use xlink:href="#DejaVuSans-74" x="530.708984"/>
      <use xlink:href="#DejaVuSans-65" x="569.917969"/>
      <use xlink:href="#DejaVuSans-64" x="631.441406"/>
      <use xlink:href="#DejaVuSans-20" x="694.917969"/>
      <use xlink:href="#DejaVuSans-73" x="726.705078"/>
      <use xlink:href="#DejaVuSans-69" x="778.804688"/>
      <use xlink:href="#DejaVuSans-67" x="806.587891"/>
      <use xlink:href="#DejaVuSans-6e" x="870.064453"/>
      <use xlink:href="#DejaVuSans-61" x="933.443359"/>
      <use xlink:href="#DejaVuSans-6c" x="994.722656"/>
     </g>
    </g>
    <g id="PathCollection_2">
     <g>
      <use xlink:href="#mdcb265922c" x="479.45" y="71.851562" style="stroke: #000000"/>
     </g>
    </g>
    <g id="text_21">
     <!-- original signal -->
     <g transform="translate(497.45 74.476562) scale(0.1 -0.1)">
      <use xlink:href="#DejaVuSans-6f"/>
      <use xlink:href="#DejaVuSans-72" x="61.181641"/>
      <use xlink:href="#DejaVuSans-69" x="102.294922"/>
      <use xlink:href="#DejaVuSans-67" x="130.078125"/>
      <use xlink:href="#DejaVuSans-69" x="193.554688"/>
      <use xlink:href="#DejaVuSans-6e" x="221.337891"/>
      <use xlink:href="#DejaVuSans-61" x="284.716797"/>
      <use xlink:href="#DejaVuSans-6c" x="345.996094"/>
      <use xlink:href="#DejaVuSans-20" x="373.779297"/>
      <use xlink:href="#DejaVuSans-73" x="405.566406"/>
      <use xlink:href="#DejaVuSans-69" x="457.666016"/>
      <use xlink:href="#DejaVuSans-67" x="485.449219"/>
      <use xlink:href="#DejaVuSans-6e" x="548.925781"/>
      <use xlink:href="#DejaVuSans-61" x="612.304688"/>
      <use xlink:href="#DejaVuSans-6c" x="673.583984"/>
     </g>
    </g>
    <g id="line2d_21">
     <path d="M 469.45 85.654687 
L 479.45 85.654687 
L 489.45 85.654687 
" style="fill: none; stroke-dasharray: 5.55,2.4; stroke-dashoffset: 0; stroke: #0000ff; stroke-width: 1.5"/>
    </g>
    <g id="text_22">
     <!-- Kernel Ridge argmax = 5.04 -->
     <g transform="translate(497.45 89.154687) scale(0.1 -0.1)">
      <defs>
       <path id="DejaVuSans-78" d="M 3513 3500 
L 2247 1797 
L 3578 0 
L 2900 0 
L 1881 1375 
L 863 0 
L 184 0 
L 1544 1831 
L 300 3500 
L 978 3500 
L 1906 2253 
L 2834 3500 
L 3513 3500 
z
" transform="scale(0.015625)"/>
      </defs>
      <use xlink:href="#DejaVuSans-4b"/>
      <use xlink:href="#DejaVuSans-65" x="60.576172"/>
      <use xlink:href="#DejaVuSans-72" x="122.099609"/>
      <use xlink:href="#DejaVuSans-6e" x="161.462891"/>
      <use xlink:href="#DejaVuSans-65" x="224.841797"/>
      <use xlink:href="#DejaVuSans-6c" x="286.365234"/>
      <use xlink:href="#DejaVuSans-20" x="314.148438"/>
      <use xlink:href="#DejaVuSans-52" x="345.935547"/>
      <use xlink:href="#DejaVuSans-69" x="415.417969"/>
      <use xlink:href="#DejaVuSans-64" x="443.201172"/>
      <use xlink:href="#DejaVuSans-67" x="506.677734"/>
      <use xlink:href="#DejaVuSans-65" x="570.154297"/>
      <use xlink:href="#DejaVuSans-20" x="631.677734"/>
      <use xlink:href="#DejaVuSans-61" x="663.464844"/>
      <use xlink:href="#DejaVuSans-72" x="724.744141"/>
      <use xlink:href="#DejaVuSans-67" x="764.107422"/>
      <use xlink:href="#DejaVuSans-6d" x="827.583984"/>
      <use xlink:href="#DejaVuSans-61" x="924.996094"/>
      <use xlink:href="#DejaVuSans-78" x="986.275391"/>
      <use xlink:href="#DejaVuSans-20" x="1045.455078"/>
      <use xlink:href="#DejaVuSans-3d" x="1077.242188"/>
      <use xlink:href="#DejaVuSans-20" x="1161.03125"/>
      <use xlink:href="#DejaVuSans-35" x="1192.818359"/>
      <use xlink:href="#DejaVuSans-2e" x="1256.441406"/>
      <use xlink:href="#DejaVuSans-30" x="1288.228516"/>
      <use xlink:href="#DejaVuSans-34" x="1351.851562"/>
     </g>
    </g>
    <g id="line2d_22">
     <path d="M 469.45 100.332812 
L 479.45 100.332812 
L 489.45 100.332812 
" style="fill: none; stroke-dasharray: 5.55,2.4; stroke-dashoffset: 0; stroke: #ff0000; stroke-width: 1.5"/>
    </g>
    <g id="text_23">
     <!-- Eyeball argmax = 5.1 -->
     <g transform="translate(497.45 103.832812) scale(0.1 -0.1)">
      <defs>
       <path id="DejaVuSans-45" d="M 628 4666 
L 3578 4666 
L 3578 4134 
L 1259 4134 
L 1259 2753 
L 3481 2753 
L 3481 2222 
L 1259 2222 
L 1259 531 
L 3634 531 
L 3634 0 
L 628 0 
L 628 4666 
z
" transform="scale(0.015625)"/>
       <path id="DejaVuSans-62" d="M 3116 1747 
Q 3116 2381 2855 2742 
Q 2594 3103 2138 3103 
Q 1681 3103 1420 2742 
Q 1159 2381 1159 1747 
Q 1159 1113 1420 752 
Q 1681 391 2138 391 
Q 2594 391 2855 752 
Q 3116 1113 3116 1747 
z
M 1159 2969 
Q 1341 3281 1617 3432 
Q 1894 3584 2278 3584 
Q 2916 3584 3314 3078 
Q 3713 2572 3713 1747 
Q 3713 922 3314 415 
Q 2916 -91 2278 -91 
Q 1894 -91 1617 61 
Q 1341 213 1159 525 
L 1159 0 
L 581 0 
L 581 4863 
L 1159 4863 
L 1159 2969 
z
" transform="scale(0.015625)"/>
      </defs>
      <use xlink:href="#DejaVuSans-45"/>
      <use xlink:href="#DejaVuSans-79" x="63.183594"/>
      <use xlink:href="#DejaVuSans-65" x="122.363281"/>
      <use xlink:href="#DejaVuSans-62" x="183.886719"/>
      <use xlink:href="#DejaVuSans-61" x="247.363281"/>
      <use xlink:href="#DejaVuSans-6c" x="308.642578"/>
      <use xlink:href="#DejaVuSans-6c" x="336.425781"/>
      <use xlink:href="#DejaVuSans-20" x="364.208984"/>
      <use xlink:href="#DejaVuSans-61" x="395.996094"/>
      <use xlink:href="#DejaVuSans-72" x="457.275391"/>
      <use xlink:href="#DejaVuSans-67" x="496.638672"/>
      <use xlink:href="#DejaVuSans-6d" x="560.115234"/>
      <use xlink:href="#DejaVuSans-61" x="657.527344"/>
      <use xlink:href="#DejaVuSans-78" x="718.806641"/>
      <use xlink:href="#DejaVuSans-20" x="777.986328"/>
      <use xlink:href="#DejaVuSans-3d" x="809.773438"/>
      <use xlink:href="#DejaVuSans-20" x="893.5625"/>
      <use xlink:href="#DejaVuSans-35" x="925.349609"/>
      <use xlink:href="#DejaVuSans-2e" x="988.972656"/>
      <use xlink:href="#DejaVuSans-31" x="1020.759766"/>
     </g>
    </g>
   </g>
  </g>
 </g>
 <defs>
  <clipPath id="p876d607f70">
   <rect x="90" y="43.2" width="558" height="277.2"/>
  </clipPath>
 </defs>
</svg>
