<?xml version="1.0" encoding="utf-8" standalone="no"?>
<!DOCTYPE svg PUBLIC "-//W3C//DTD SVG 1.1//EN"
  "http://www.w3.org/Graphics/SVG/1.1/DTD/svg11.dtd">
<svg xmlns:xlink="http://www.w3.org/1999/xlink" width="720pt" height="360pt" viewBox="0 0 720 360" xmlns="http://www.w3.org/2000/svg" version="1.1">
 <metadata>
  <rdf:RDF xmlns:dc="http://purl.org/dc/elements/1.1/" xmlns:cc="http://creativecommons.org/ns#" xmlns:rdf="http://www.w3.org/1999/02/22-rdf-syntax-ns#">
   <cc:Work>
    <dc:type rdf:resource="http://purl.org/dc/dcmitype/StillImage"/>
    <dc:date>2022-12-17T12:55:57.654302</dc:date>
    <dc:format>image/svg+xml</dc:format>
    <dc:creator>
     <cc:Agent>
      <dc:title>Matplotlib v3.6.0, https://matplotlib.org/</dc:title>
     </cc:Agent>
    </dc:creator>
   </cc:Work>
  </rdf:RDF>
 </metadata>
 <defs>
  <style type="text/css">*{stroke-linejoin: round; stroke-linecap: butt}</style>
 </defs>
 <g id="figure_1">
  <g id="patch_1">
   <path d="M 0 360 
L 720 360 
L 720 0 
L 0 0 
z
" style="fill: #ffffff"/>
  </g>
  <g id="axes_1">
   <g id="patch_2">
    <path d="M 90 320.4 
L 648 320.4 
L 648 43.2 
L 90 43.2 
z
" style="fill: #ffffff"/>
   </g>
   <g id="PathCollection_1">
    <defs>
     <path id="m3f18d9bfd2" d="M 0 4.1833 
C 1.109424 4.1833 2.173559 3.742521 2.95804 2.95804 
C 3.742521 2.173559 4.1833 1.109424 4.1833 0 
C 4.1833 -1.109424 3.742521 -2.173559 2.95804 -2.95804 
C 2.173559 -3.742521 1.109424 -4.1833 0 -4.1833 
C -1.109424 -4.1833 -2.173559 -3.742521 -2.95804 -2.95804 
C -3.742521 -2.173559 -4.1833 -1.109424 -4.1833 0 
C -4.1833 1.109424 -3.742521 2.173559 -2.95804 2.95804 
C -2.173559 3.742521 -1.109424 4.1833 0 4.1833 
z
" style="stroke: #ff0000"/>
    </defs>
    <g clip-path="url(#pb22eec6f23)">
     <use xlink:href="#m3f18d9bfd2" x="141.507692" y="126.511475" style="fill: #ff0000; stroke: #ff0000"/>
     <use xlink:href="#m3f18d9bfd2" x="184.430769" y="315.855738" style="fill: #ff0000; stroke: #ff0000"/>
     <use xlink:href="#m3f18d9bfd2" x="459.138462" y="315.855738" style="fill: #ff0000; stroke: #ff0000"/>
     <use xlink:href="#m3f18d9bfd2" x="527.815385" y="126.511475" style="fill: #ff0000; stroke: #ff0000"/>
    </g>
   </g>
   <g id="matplotlib.axis_1">
    <g id="xtick_1">
     <g id="line2d_1">
      <defs>
       <path id="m0521d294a1" d="M 0 0 
L 0 3.5 
" style="stroke: #000000; stroke-width: 0.8"/>
      </defs>
      <g>
       <use xlink:href="#m0521d294a1" x="98.584615" y="320.4" style="stroke: #000000; stroke-width: 0.8"/>
      </g>
     </g>
     <g id="text_1">
      <!-- 0.00 -->
      <g transform="translate(87.451803 334.998438) scale(0.1 -0.1)">
       <defs>
        <path id="DejaVuSans-30" d="M 2034 4250 
Q 1547 4250 1301 3770 
Q 1056 3291 1056 2328 
Q 1056 1369 1301 889 
Q 1547 409 2034 409 
Q 2525 409 2770 889 
Q 3016 1369 3016 2328 
Q 3016 3291 2770 3770 
Q 2525 4250 2034 4250 
z
M 2034 4750 
Q 2819 4750 3233 4129 
Q 3647 3509 3647 2328 
Q 3647 1150 3233 529 
Q 2819 -91 2034 -91 
Q 1250 -91 836 529 
Q 422 1150 422 2328 
Q 422 3509 836 4129 
Q 1250 4750 2034 4750 
z
" transform="scale(0.015625)"/>
        <path id="DejaVuSans-2e" d="M 684 794 
L 1344 794 
L 1344 0 
L 684 0 
L 684 794 
z
" transform="scale(0.015625)"/>
       </defs>
       <use xlink:href="#DejaVuSans-30"/>
       <use xlink:href="#DejaVuSans-2e" x="63.623047"/>
       <use xlink:href="#DejaVuSans-30" x="95.410156"/>
       <use xlink:href="#DejaVuSans-30" x="159.033203"/>
      </g>
     </g>
    </g>
    <g id="xtick_2">
     <g id="line2d_2">
      <g>
       <use xlink:href="#m0521d294a1" x="184.430769" y="320.4" style="stroke: #000000; stroke-width: 0.8"/>
      </g>
     </g>
     <g id="text_2">
      <!-- 2.00 -->
      <g transform="translate(173.297957 334.998438) scale(0.1 -0.1)">
       <defs>
        <path id="DejaVuSans-32" d="M 1228 531 
L 3431 531 
L 3431 0 
L 469 0 
L 469 531 
Q 828 903 1448 1529 
Q 2069 2156 2228 2338 
Q 2531 2678 2651 2914 
Q 2772 3150 2772 3378 
Q 2772 3750 2511 3984 
Q 2250 4219 1831 4219 
Q 1534 4219 1204 4116 
Q 875 4013 500 3803 
L 500 4441 
Q 881 4594 1212 4672 
Q 1544 4750 1819 4750 
Q 2544 4750 2975 4387 
Q 3406 4025 3406 3419 
Q 3406 3131 3298 2873 
Q 3191 2616 2906 2266 
Q 2828 2175 2409 1742 
Q 1991 1309 1228 531 
z
" transform="scale(0.015625)"/>
       </defs>
       <use xlink:href="#DejaVuSans-32"/>
       <use xlink:href="#DejaVuSans-2e" x="63.623047"/>
       <use xlink:href="#DejaVuSans-30" x="95.410156"/>
       <use xlink:href="#DejaVuSans-30" x="159.033203"/>
      </g>
     </g>
    </g>
    <g id="xtick_3">
     <g id="line2d_3">
      <g>
       <use xlink:href="#m0521d294a1" x="270.276923" y="320.4" style="stroke: #000000; stroke-width: 0.8"/>
      </g>
     </g>
     <g id="text_3">
      <!-- 4.00 -->
      <g transform="translate(259.144111 334.998438) scale(0.1 -0.1)">
       <defs>
        <path id="DejaVuSans-34" d="M 2419 4116 
L 825 1625 
L 2419 1625 
L 2419 4116 
z
M 2253 4666 
L 3047 4666 
L 3047 1625 
L 3713 1625 
L 3713 1100 
L 3047 1100 
L 3047 0 
L 2419 0 
L 2419 1100 
L 313 1100 
L 313 1709 
L 2253 4666 
z
" transform="scale(0.015625)"/>
       </defs>
       <use xlink:href="#DejaVuSans-34"/>
       <use xlink:href="#DejaVuSans-2e" x="63.623047"/>
       <use xlink:href="#DejaVuSans-30" x="95.410156"/>
       <use xlink:href="#DejaVuSans-30" x="159.033203"/>
      </g>
     </g>
    </g>
    <g id="xtick_4">
     <g id="line2d_4">
      <g>
       <use xlink:href="#m0521d294a1" x="356.123077" y="320.4" style="stroke: #000000; stroke-width: 0.8"/>
      </g>
     </g>
     <g id="text_4">
      <!-- 6.00 -->
      <g transform="translate(344.990264 334.998438) scale(0.1 -0.1)">
       <defs>
        <path id="DejaVuSans-36" d="M 2113 2584 
Q 1688 2584 1439 2293 
Q 1191 2003 1191 1497 
Q 1191 994 1439 701 
Q 1688 409 2113 409 
Q 2538 409 2786 701 
Q 3034 994 3034 1497 
Q 3034 2003 2786 2293 
Q 2538 2584 2113 2584 
z
M 3366 4563 
L 3366 3988 
Q 3128 4100 2886 4159 
Q 2644 4219 2406 4219 
Q 1781 4219 1451 3797 
Q 1122 3375 1075 2522 
Q 1259 2794 1537 2939 
Q 1816 3084 2150 3084 
Q 2853 3084 3261 2657 
Q 3669 2231 3669 1497 
Q 3669 778 3244 343 
Q 2819 -91 2113 -91 
Q 1303 -91 875 529 
Q 447 1150 447 2328 
Q 447 3434 972 4092 
Q 1497 4750 2381 4750 
Q 2619 4750 2861 4703 
Q 3103 4656 3366 4563 
z
" transform="scale(0.015625)"/>
       </defs>
       <use xlink:href="#DejaVuSans-36"/>
       <use xlink:href="#DejaVuSans-2e" x="63.623047"/>
       <use xlink:href="#DejaVuSans-30" x="95.410156"/>
       <use xlink:href="#DejaVuSans-30" x="159.033203"/>
      </g>
     </g>
    </g>
    <g id="xtick_5">
     <g id="line2d_5">
      <g>
       <use xlink:href="#m0521d294a1" x="441.969231" y="320.4" style="stroke: #000000; stroke-width: 0.8"/>
      </g>
     </g>
     <g id="text_5">
      <!-- 8.00 -->
      <g transform="translate(430.836418 334.998438) scale(0.1 -0.1)">
       <defs>
        <path id="DejaVuSans-38" d="M 2034 2216 
Q 1584 2216 1326 1975 
Q 1069 1734 1069 1313 
Q 1069 891 1326 650 
Q 1584 409 2034 409 
Q 2484 409 2743 651 
Q 3003 894 3003 1313 
Q 3003 1734 2745 1975 
Q 2488 2216 2034 2216 
z
M 1403 2484 
Q 997 2584 770 2862 
Q 544 3141 544 3541 
Q 544 4100 942 4425 
Q 1341 4750 2034 4750 
Q 2731 4750 3128 4425 
Q 3525 4100 3525 3541 
Q 3525 3141 3298 2862 
Q 3072 2584 2669 2484 
Q 3125 2378 3379 2068 
Q 3634 1759 3634 1313 
Q 3634 634 3220 271 
Q 2806 -91 2034 -91 
Q 1263 -91 848 271 
Q 434 634 434 1313 
Q 434 1759 690 2068 
Q 947 2378 1403 2484 
z
M 1172 3481 
Q 1172 3119 1398 2916 
Q 1625 2713 2034 2713 
Q 2441 2713 2670 2916 
Q 2900 3119 2900 3481 
Q 2900 3844 2670 4047 
Q 2441 4250 2034 4250 
Q 1625 4250 1398 4047 
Q 1172 3844 1172 3481 
z
" transform="scale(0.015625)"/>
       </defs>
       <use xlink:href="#DejaVuSans-38"/>
       <use xlink:href="#DejaVuSans-2e" x="63.623047"/>
       <use xlink:href="#DejaVuSans-30" x="95.410156"/>
       <use xlink:href="#DejaVuSans-30" x="159.033203"/>
      </g>
     </g>
    </g>
    <g id="xtick_6">
     <g id="line2d_6">
      <g>
       <use xlink:href="#m0521d294a1" x="527.815385" y="320.4" style="stroke: #000000; stroke-width: 0.8"/>
      </g>
     </g>
     <g id="text_6">
      <!-- 10.00 -->
      <g transform="translate(513.501322 334.998438) scale(0.1 -0.1)">
       <defs>
        <path id="DejaVuSans-31" d="M 794 531 
L 1825 531 
L 1825 4091 
L 703 3866 
L 703 4441 
L 1819 4666 
L 2450 4666 
L 2450 531 
L 3481 531 
L 3481 0 
L 794 0 
L 794 531 
z
" transform="scale(0.015625)"/>
       </defs>
       <use xlink:href="#DejaVuSans-31"/>
       <use xlink:href="#DejaVuSans-30" x="63.623047"/>
       <use xlink:href="#DejaVuSans-2e" x="127.246094"/>
       <use xlink:href="#DejaVuSans-30" x="159.033203"/>
       <use xlink:href="#DejaVuSans-30" x="222.65625"/>
      </g>
     </g>
    </g>
    <g id="xtick_7">
     <g id="line2d_7">
      <g>
       <use xlink:href="#m0521d294a1" x="613.661538" y="320.4" style="stroke: #000000; stroke-width: 0.8"/>
      </g>
     </g>
     <g id="text_7">
      <!-- 12.00 -->
      <g transform="translate(599.347476 334.998438) scale(0.1 -0.1)">
       <use xlink:href="#DejaVuSans-31"/>
       <use xlink:href="#DejaVuSans-32" x="63.623047"/>
       <use xlink:href="#DejaVuSans-2e" x="127.246094"/>
       <use xlink:href="#DejaVuSans-30" x="159.033203"/>
       <use xlink:href="#DejaVuSans-30" x="222.65625"/>
      </g>
     </g>
    </g>
    <g id="xtick_8">
     <g id="line2d_8">
      <g>
       <use xlink:href="#m0521d294a1" x="315.346154" y="320.4" style="stroke: #000000; stroke-width: 0.8"/>
      </g>
     </g>
     <g id="text_8">
      <!-- 5.05 -->
      <g transform="translate(304.213341 334.998438) scale(0.1 -0.1)">
       <defs>
        <path id="DejaVuSans-35" d="M 691 4666 
L 3169 4666 
L 3169 4134 
L 1269 4134 
L 1269 2991 
Q 1406 3038 1543 3061 
Q 1681 3084 1819 3084 
Q 2600 3084 3056 2656 
Q 3513 2228 3513 1497 
Q 3513 744 3044 326 
Q 2575 -91 1722 -91 
Q 1428 -91 1123 -41 
Q 819 9 494 109 
L 494 744 
Q 775 591 1075 516 
Q 1375 441 1709 441 
Q 2250 441 2565 725 
Q 2881 1009 2881 1497 
Q 2881 1984 2565 2268 
Q 2250 2553 1709 2553 
Q 1456 2553 1204 2497 
Q 953 2441 691 2322 
L 691 4666 
z
" transform="scale(0.015625)"/>
       </defs>
       <use xlink:href="#DejaVuSans-35"/>
       <use xlink:href="#DejaVuSans-2e" x="63.623047"/>
       <use xlink:href="#DejaVuSans-30" x="95.410156"/>
       <use xlink:href="#DejaVuSans-35" x="159.033203"/>
      </g>
     </g>
    </g>
    <g id="text_9">
     <!-- Time (t) -->
     <g transform="translate(349.315625 348.676562) scale(0.1 -0.1)">
      <defs>
       <path id="DejaVuSans-54" d="M -19 4666 
L 3928 4666 
L 3928 4134 
L 2272 4134 
L 2272 0 
L 1638 0 
L 1638 4134 
L -19 4134 
L -19 4666 
z
" transform="scale(0.015625)"/>
       <path id="DejaVuSans-69" d="M 603 3500 
L 1178 3500 
L 1178 0 
L 603 0 
L 603 3500 
z
M 603 4863 
L 1178 4863 
L 1178 4134 
L 603 4134 
L 603 4863 
z
" transform="scale(0.015625)"/>
       <path id="DejaVuSans-6d" d="M 3328 2828 
Q 3544 3216 3844 3400 
Q 4144 3584 4550 3584 
Q 5097 3584 5394 3201 
Q 5691 2819 5691 2113 
L 5691 0 
L 5113 0 
L 5113 2094 
Q 5113 2597 4934 2840 
Q 4756 3084 4391 3084 
Q 3944 3084 3684 2787 
Q 3425 2491 3425 1978 
L 3425 0 
L 2847 0 
L 2847 2094 
Q 2847 2600 2669 2842 
Q 2491 3084 2119 3084 
Q 1678 3084 1418 2786 
Q 1159 2488 1159 1978 
L 1159 0 
L 581 0 
L 581 3500 
L 1159 3500 
L 1159 2956 
Q 1356 3278 1631 3431 
Q 1906 3584 2284 3584 
Q 2666 3584 2933 3390 
Q 3200 3197 3328 2828 
z
" transform="scale(0.015625)"/>
       <path id="DejaVuSans-65" d="M 3597 1894 
L 3597 1613 
L 953 1613 
Q 991 1019 1311 708 
Q 1631 397 2203 397 
Q 2534 397 2845 478 
Q 3156 559 3463 722 
L 3463 178 
Q 3153 47 2828 -22 
Q 2503 -91 2169 -91 
Q 1331 -91 842 396 
Q 353 884 353 1716 
Q 353 2575 817 3079 
Q 1281 3584 2069 3584 
Q 2775 3584 3186 3129 
Q 3597 2675 3597 1894 
z
M 3022 2063 
Q 3016 2534 2758 2815 
Q 2500 3097 2075 3097 
Q 1594 3097 1305 2825 
Q 1016 2553 972 2059 
L 3022 2063 
z
" transform="scale(0.015625)"/>
       <path id="DejaVuSans-20" transform="scale(0.015625)"/>
       <path id="DejaVuSans-28" d="M 1984 4856 
Q 1566 4138 1362 3434 
Q 1159 2731 1159 2009 
Q 1159 1288 1364 580 
Q 1569 -128 1984 -844 
L 1484 -844 
Q 1016 -109 783 600 
Q 550 1309 550 2009 
Q 550 2706 781 3412 
Q 1013 4119 1484 4856 
L 1984 4856 
z
" transform="scale(0.015625)"/>
       <path id="DejaVuSans-74" d="M 1172 4494 
L 1172 3500 
L 2356 3500 
L 2356 3053 
L 1172 3053 
L 1172 1153 
Q 1172 725 1289 603 
Q 1406 481 1766 481 
L 2356 481 
L 2356 0 
L 1766 0 
Q 1100 0 847 248 
Q 594 497 594 1153 
L 594 3053 
L 172 3053 
L 172 3500 
L 594 3500 
L 594 4494 
L 1172 4494 
z
" transform="scale(0.015625)"/>
       <path id="DejaVuSans-29" d="M 513 4856 
L 1013 4856 
Q 1481 4119 1714 3412 
Q 1947 2706 1947 2009 
Q 1947 1309 1714 600 
Q 1481 -109 1013 -844 
L 513 -844 
Q 928 -128 1133 580 
Q 1338 1288 1338 2009 
Q 1338 2731 1133 3434 
Q 928 4138 513 4856 
z
" transform="scale(0.015625)"/>
      </defs>
      <use xlink:href="#DejaVuSans-54"/>
      <use xlink:href="#DejaVuSans-69" x="57.958984"/>
      <use xlink:href="#DejaVuSans-6d" x="85.742188"/>
      <use xlink:href="#DejaVuSans-65" x="183.154297"/>
      <use xlink:href="#DejaVuSans-20" x="244.677734"/>
      <use xlink:href="#DejaVuSans-28" x="276.464844"/>
      <use xlink:href="#DejaVuSans-74" x="315.478516"/>
      <use xlink:href="#DejaVuSans-29" x="354.6875"/>
     </g>
    </g>
   </g>
   <g id="matplotlib.axis_2">
    <g id="ytick_1">
     <g id="line2d_9">
      <defs>
       <path id="m1b50a76cc4" d="M 0 0 
L -3.5 0 
" style="stroke: #000000; stroke-width: 0.8"/>
      </defs>
      <g>
       <use xlink:href="#m1b50a76cc4" x="90" y="315.855738" style="stroke: #000000; stroke-width: 0.8"/>
      </g>
     </g>
     <g id="text_10">
      <!-- −0.75 -->
      <g transform="translate(52.354687 319.654956) scale(0.1 -0.1)">
       <defs>
        <path id="DejaVuSans-2212" d="M 678 2272 
L 4684 2272 
L 4684 1741 
L 678 1741 
L 678 2272 
z
" transform="scale(0.015625)"/>
        <path id="DejaVuSans-37" d="M 525 4666 
L 3525 4666 
L 3525 4397 
L 1831 0 
L 1172 0 
L 2766 4134 
L 525 4134 
L 525 4666 
z
" transform="scale(0.015625)"/>
       </defs>
       <use xlink:href="#DejaVuSans-2212"/>
       <use xlink:href="#DejaVuSans-30" x="83.789062"/>
       <use xlink:href="#DejaVuSans-2e" x="147.412109"/>
       <use xlink:href="#DejaVuSans-37" x="179.199219"/>
       <use xlink:href="#DejaVuSans-35" x="242.822266"/>
      </g>
     </g>
    </g>
    <g id="ytick_2">
     <g id="line2d_10">
      <g>
       <use xlink:href="#m1b50a76cc4" x="90" y="277.986885" style="stroke: #000000; stroke-width: 0.8"/>
      </g>
     </g>
     <g id="text_11">
      <!-- −0.50 -->
      <g transform="translate(52.354687 281.786104) scale(0.1 -0.1)">
       <use xlink:href="#DejaVuSans-2212"/>
       <use xlink:href="#DejaVuSans-30" x="83.789062"/>
       <use xlink:href="#DejaVuSans-2e" x="147.412109"/>
       <use xlink:href="#DejaVuSans-35" x="179.199219"/>
       <use xlink:href="#DejaVuSans-30" x="242.822266"/>
      </g>
     </g>
    </g>
    <g id="ytick_3">
     <g id="line2d_11">
      <g>
       <use xlink:href="#m1b50a76cc4" x="90" y="240.118033" style="stroke: #000000; stroke-width: 0.8"/>
      </g>
     </g>
     <g id="text_12">
      <!-- −0.25 -->
      <g transform="translate(52.354687 243.917252) scale(0.1 -0.1)">
       <use xlink:href="#DejaVuSans-2212"/>
       <use xlink:href="#DejaVuSans-30" x="83.789062"/>
       <use xlink:href="#DejaVuSans-2e" x="147.412109"/>
       <use xlink:href="#DejaVuSans-32" x="179.199219"/>
       <use xlink:href="#DejaVuSans-35" x="242.822266"/>
      </g>
     </g>
    </g>
    <g id="ytick_4">
     <g id="line2d_12">
      <g>
       <use xlink:href="#m1b50a76cc4" x="90" y="202.24918" style="stroke: #000000; stroke-width: 0.8"/>
      </g>
     </g>
     <g id="text_13">
      <!-- 0.00 -->
      <g transform="translate(60.734375 206.048399) scale(0.1 -0.1)">
       <use xlink:href="#DejaVuSans-30"/>
       <use xlink:href="#DejaVuSans-2e" x="63.623047"/>
       <use xlink:href="#DejaVuSans-30" x="95.410156"/>
       <use xlink:href="#DejaVuSans-30" x="159.033203"/>
      </g>
     </g>
    </g>
    <g id="ytick_5">
     <g id="line2d_13">
      <g>
       <use xlink:href="#m1b50a76cc4" x="90" y="164.380328" style="stroke: #000000; stroke-width: 0.8"/>
      </g>
     </g>
     <g id="text_14">
      <!-- 0.25 -->
      <g transform="translate(60.734375 168.179547) scale(0.1 -0.1)">
       <use xlink:href="#DejaVuSans-30"/>
       <use xlink:href="#DejaVuSans-2e" x="63.623047"/>
       <use xlink:href="#DejaVuSans-32" x="95.410156"/>
       <use xlink:href="#DejaVuSans-35" x="159.033203"/>
      </g>
     </g>
    </g>
    <g id="ytick_6">
     <g id="line2d_14">
      <g>
       <use xlink:href="#m1b50a76cc4" x="90" y="126.511475" style="stroke: #000000; stroke-width: 0.8"/>
      </g>
     </g>
     <g id="text_15">
      <!-- 0.50 -->
      <g transform="translate(60.734375 130.310694) scale(0.1 -0.1)">
       <use xlink:href="#DejaVuSans-30"/>
       <use xlink:href="#DejaVuSans-2e" x="63.623047"/>
       <use xlink:href="#DejaVuSans-35" x="95.410156"/>
       <use xlink:href="#DejaVuSans-30" x="159.033203"/>
      </g>
     </g>
    </g>
    <g id="ytick_7">
     <g id="line2d_15">
      <g>
       <use xlink:href="#m1b50a76cc4" x="90" y="88.642623" style="stroke: #000000; stroke-width: 0.8"/>
      </g>
     </g>
     <g id="text_16">
      <!-- 0.75 -->
      <g transform="translate(60.734375 92.441842) scale(0.1 -0.1)">
       <use xlink:href="#DejaVuSans-30"/>
       <use xlink:href="#DejaVuSans-2e" x="63.623047"/>
       <use xlink:href="#DejaVuSans-37" x="95.410156"/>
       <use xlink:href="#DejaVuSans-35" x="159.033203"/>
      </g>
     </g>
    </g>
    <g id="ytick_8">
     <g id="line2d_16">
      <g>
       <use xlink:href="#m1b50a76cc4" x="90" y="50.77377" style="stroke: #000000; stroke-width: 0.8"/>
      </g>
     </g>
     <g id="text_17">
      <!-- 1.00 -->
      <g transform="translate(60.734375 54.572989) scale(0.1 -0.1)">
       <use xlink:href="#DejaVuSans-31"/>
       <use xlink:href="#DejaVuSans-2e" x="63.623047"/>
       <use xlink:href="#DejaVuSans-30" x="95.410156"/>
       <use xlink:href="#DejaVuSans-30" x="159.033203"/>
      </g>
     </g>
    </g>
    <g id="text_18">
     <!-- y(t) -->
     <g transform="translate(46.275 190.621094) rotate(-90) scale(0.1 -0.1)">
      <defs>
       <path id="DejaVuSans-79" d="M 2059 -325 
Q 1816 -950 1584 -1140 
Q 1353 -1331 966 -1331 
L 506 -1331 
L 506 -850 
L 844 -850 
Q 1081 -850 1212 -737 
Q 1344 -625 1503 -206 
L 1606 56 
L 191 3500 
L 800 3500 
L 1894 763 
L 2988 3500 
L 3597 3500 
L 2059 -325 
z
" transform="scale(0.015625)"/>
      </defs>
      <use xlink:href="#DejaVuSans-79"/>
      <use xlink:href="#DejaVuSans-28" x="59.179688"/>
      <use xlink:href="#DejaVuSans-74" x="98.193359"/>
      <use xlink:href="#DejaVuSans-29" x="137.402344"/>
     </g>
    </g>
   </g>
   <g id="line2d_17">
    <path d="M 315.346154 320.4 
L 315.346154 43.2 
" clip-path="url(#pb22eec6f23)" style="fill: none; stroke-dasharray: 5.55,2.4; stroke-dashoffset: 0; stroke: #0000ff; stroke-width: 1.5"/>
   </g>
   <g id="line2d_18">
    <path d="M 98.584615 203.753132 
L 101.589231 201.690122 
L 112.749231 193.663612 
L 115.324615 192.196968 
L 117.9 190.968975 
L 120.475385 189.998745 
L 122.621538 189.400334 
L 124.767692 189.007821 
L 126.913846 188.84029 
L 129.06 188.921519 
L 130.776923 189.18331 
L 132.493846 189.634318 
L 134.210769 190.285624 
L 135.927692 191.144556 
L 137.644615 192.213068 
L 139.790769 193.835414 
L 141.936923 195.750825 
L 144.512308 198.370118 
L 147.946154 202.213746 
L 153.526154 208.470869 
L 156.101538 210.995128 
L 158.247692 212.783549 
L 159.964615 213.963761 
L 161.681538 214.895469 
L 163.398462 215.561833 
L 165.115385 215.952333 
L 166.832308 216.062327 
L 168.549231 215.892523 
L 170.266154 215.448504 
L 171.983077 214.740366 
L 173.7 213.78252 
L 175.416923 212.593638 
L 177.563077 210.818069 
L 180.138462 208.336121 
L 183.143077 205.10188 
L 190.869231 196.580687 
L 193.444615 194.146981 
L 195.590769 192.410243 
L 197.736923 190.976903 
L 199.883077 189.861819 
L 201.6 189.196592 
L 203.746154 188.633271 
L 205.892308 188.342277 
L 208.038462 188.293838 
L 210.184615 188.463696 
L 212.330769 188.840606 
L 214.476923 189.431848 
L 216.623077 190.265654 
L 218.34 191.138956 
L 220.056923 192.229316 
L 221.773846 193.571358 
L 223.490769 195.199294 
L 225.207692 197.142874 
L 226.924615 199.423192 
L 228.641538 202.048683 
L 230.787692 205.802557 
L 232.933846 210.026208 
L 235.938462 216.519391 
L 241.947692 229.733581 
L 244.093846 233.800587 
L 245.810769 236.55226 
L 247.098462 238.252546 
L 248.386154 239.597 
L 249.673846 240.551907 
L 250.532308 240.958369 
L 251.390769 241.173106 
L 252.249231 241.191189 
L 253.107692 241.009134 
L 253.966154 240.624885 
L 254.824615 240.037789 
L 255.683077 239.248539 
L 256.970769 237.690265 
L 258.258462 235.693412 
L 259.546154 233.274728 
L 260.833846 230.455232 
L 262.550769 226.114761 
L 264.267692 221.168655 
L 266.413846 214.236042 
L 268.989231 204.987069 
L 271.993846 193.175848 
L 275.427692 178.683972 
L 280.149231 157.68769 
L 289.163077 117.364534 
L 292.596923 103.108747 
L 295.601538 91.600364 
L 298.176923 82.614203 
L 300.323077 75.823428 
L 302.469231 69.72164 
L 304.615385 64.359407 
L 306.332308 60.639855 
L 308.049231 57.46397 
L 309.336923 55.46283 
L 310.624615 53.809317 
L 311.912308 52.524479 
L 313.2 51.630694 
L 314.058462 51.263476 
L 314.916923 51.087153 
L 315.775385 51.108411 
L 316.633846 51.333641 
L 317.492308 51.768797 
L 318.350769 52.419241 
L 319.209231 53.28959 
L 320.496923 55.015313 
L 321.784615 57.252053 
L 323.072308 60.001727 
L 324.36 63.259325 
L 326.076923 68.370249 
L 327.793846 74.310357 
L 329.510769 81.005277 
L 331.656923 90.287839 
L 334.232308 102.467276 
L 338.095385 121.954712 
L 343.675385 150.094409 
L 346.68 164.21751 
L 349.684615 177.226028 
L 352.26 187.394115 
L 354.835385 196.63284 
L 357.410769 204.94156 
L 359.556923 211.149642 
L 361.703077 216.688727 
L 363.849231 221.526827 
L 365.566154 224.86347 
L 367.283077 227.698307 
L 368.570769 229.480085 
L 369.858462 230.956254 
L 371.146154 232.119357 
L 372.433846 232.964447 
L 373.721538 233.489653 
L 375.009231 233.696605 
L 376.296923 233.590717 
L 377.584615 233.181298 
L 378.872308 232.481494 
L 380.16 231.508081 
L 381.447692 230.281108 
L 383.164615 228.290547 
L 384.881538 225.950173 
L 387.027692 222.631288 
L 390.032308 217.481682 
L 399.904615 200.061341 
L 402.48 196.080526 
L 405.055385 192.497459 
L 407.201538 189.843151 
L 409.347692 187.503292 
L 411.493846 185.483201 
L 413.64 183.783976 
L 415.786154 182.404619 
L 417.503077 181.530701 
L 419.22 180.86111 
L 420.936923 180.397584 
L 422.653846 180.143825 
L 424.370769 180.105877 
L 426.087692 180.292278 
L 427.804615 180.713909 
L 429.521538 181.383475 
L 431.238462 182.314567 
L 432.955385 183.520321 
L 434.672308 185.01169 
L 436.389231 186.795437 
L 438.106154 188.871979 
L 440.252308 191.866155 
L 442.398462 195.265516 
L 444.973846 199.781197 
L 449.266154 207.87494 
L 452.7 214.185266 
L 454.846154 217.71985 
L 456.563077 220.183719 
L 458.28 222.240452 
L 459.567692 223.476298 
L 460.855385 224.424647 
L 462.143077 225.069384 
L 463.430769 225.400495 
L 464.718462 225.414371 
L 466.006154 225.113899 
L 467.293846 224.508338 
L 468.581538 223.612994 
L 469.869231 222.448712 
L 471.586154 220.523022 
L 473.303077 218.23713 
L 475.449231 214.996671 
L 478.883077 209.321601 
L 483.175385 202.262341 
L 485.750769 198.456542 
L 487.896923 195.678693 
L 489.613846 193.756308 
L 491.330769 192.117796 
L 493.047692 190.767697 
L 494.764615 189.701226 
L 496.481538 188.905863 
L 498.198462 188.363071 
L 499.915385 188.050026 
L 501.632308 187.941303 
L 503.778462 188.052449 
L 505.924615 188.391115 
L 508.5 189.033877 
L 511.504615 190.030049 
L 514.938462 191.412757 
L 518.801538 193.231223 
L 522.235385 195.083539 
L 525.669231 197.167582 
L 529.961538 200.050991 
L 536.829231 204.735675 
L 539.404615 206.229848 
L 541.550769 207.250098 
L 543.696923 208.011578 
L 545.413846 208.408582 
L 547.130769 208.603835 
L 548.847692 208.593326 
L 550.564615 208.380958 
L 552.281538 207.978223 
L 554.427692 207.235476 
L 557.003077 206.05722 
L 560.007692 204.411774 
L 569.450769 199.0393 
L 572.455385 197.708295 
L 575.030769 196.823807 
L 577.176923 196.292314 
L 579.323077 195.962594 
L 581.469231 195.844221 
L 583.615385 195.941733 
L 585.761538 196.253162 
L 587.907692 196.768366 
L 590.483077 197.627137 
L 593.487692 198.891263 
L 598.638462 201.378886 
L 602.501538 203.155148 
L 605.506154 204.29706 
L 608.081538 205.044734 
L 610.656923 205.562207 
L 613.232308 205.861976 
L 616.236923 205.982191 
L 620.1 205.884974 
L 625.68 205.495593 
L 631.689231 204.879347 
L 635.552308 204.285451 
L 638.986154 203.542979 
L 638.986154 203.542979 
" clip-path="url(#pb22eec6f23)" style="fill: none; stroke: #008000; stroke-width: 1.5; stroke-linecap: square"/>
   </g>
   <g id="LineCollection_1">
    <path d="M 98.584615 202.24918 
L 98.584615 206.777861 
" clip-path="url(#pb22eec6f23)" style="fill: none"/>
    <path d="M 107.169231 202.24918 
L 107.169231 194.414697 
" clip-path="url(#pb22eec6f23)" style="fill: none"/>
    <path d="M 132.923077 202.24918 
L 132.923077 192.86296 
" clip-path="url(#pb22eec6f23)" style="fill: none"/>
    <path d="M 141.507692 202.24918 
L 141.507692 126.511475 
" clip-path="url(#pb22eec6f23)" style="fill: none"/>
    <path d="M 150.092308 202.24918 
L 150.092308 207.718697 
" clip-path="url(#pb22eec6f23)" style="fill: none"/>
    <path d="M 175.846154 202.24918 
L 175.846154 209.278848 
" clip-path="url(#pb22eec6f23)" style="fill: none"/>
    <path d="M 184.430769 202.24918 
L 184.430769 315.855738 
" clip-path="url(#pb22eec6f23)" style="fill: none"/>
    <path d="M 193.015385 202.24918 
L 193.015385 191.526948 
" clip-path="url(#pb22eec6f23)" style="fill: none"/>
    <path d="M 210.184615 202.24918 
L 210.184615 191.485303 
" clip-path="url(#pb22eec6f23)" style="fill: none"/>
    <path d="M 227.353846 202.24918 
L 227.353846 197.078984 
" clip-path="url(#pb22eec6f23)" style="fill: none"/>
    <path d="M 244.523077 202.24918 
L 244.523077 231.458132 
" clip-path="url(#pb22eec6f23)" style="fill: none"/>
    <path d="M 253.107692 202.24918 
L 253.107692 244.079737 
" clip-path="url(#pb22eec6f23)" style="fill: none"/>
    <path d="M 270.276923 202.24918 
L 270.276923 194.545068 
" clip-path="url(#pb22eec6f23)" style="fill: none"/>
    <path d="M 278.861538 202.24918 
L 278.861538 172.806046 
" clip-path="url(#pb22eec6f23)" style="fill: none"/>
    <path d="M 296.030769 202.24918 
L 296.030769 86.694001 
" clip-path="url(#pb22eec6f23)" style="fill: none"/>
    <path d="M 313.2 202.24918 
L 313.2 54.686725 
" clip-path="url(#pb22eec6f23)" style="fill: none"/>
    <path d="M 321.784615 202.24918 
L 321.784615 53.015725 
" clip-path="url(#pb22eec6f23)" style="fill: none"/>
    <path d="M 330.369231 202.24918 
L 330.369231 81.601716 
" clip-path="url(#pb22eec6f23)" style="fill: none"/>
    <path d="M 338.953846 202.24918 
L 338.953846 130.617705 
" clip-path="url(#pb22eec6f23)" style="fill: none"/>
    <path d="M 356.123077 202.24918 
L 356.123077 197.924175 
" clip-path="url(#pb22eec6f23)" style="fill: none"/>
    <path d="M 373.292308 202.24918 
L 373.292308 237.332604 
" clip-path="url(#pb22eec6f23)" style="fill: none"/>
    <path d="M 381.876923 202.24918 
L 381.876923 226.770241 
" clip-path="url(#pb22eec6f23)" style="fill: none"/>
    <path d="M 390.461538 202.24918 
L 390.461538 219.771624 
" clip-path="url(#pb22eec6f23)" style="fill: none"/>
    <path d="M 416.215385 202.24918 
L 416.215385 179.118583 
" clip-path="url(#pb22eec6f23)" style="fill: none"/>
    <path d="M 441.969231 202.24918 
L 441.969231 197.595287 
" clip-path="url(#pb22eec6f23)" style="fill: none"/>
    <path d="M 450.553846 202.24918 
L 450.553846 207.231735 
" clip-path="url(#pb22eec6f23)" style="fill: none"/>
    <path d="M 459.138462 202.24918 
L 459.138462 315.855738 
" clip-path="url(#pb22eec6f23)" style="fill: none"/>
    <path d="M 476.307692 202.24918 
L 476.307692 210.561661 
" clip-path="url(#pb22eec6f23)" style="fill: none"/>
    <path d="M 493.476923 202.24918 
L 493.476923 193.457173 
" clip-path="url(#pb22eec6f23)" style="fill: none"/>
    <path d="M 510.646154 202.24918 
L 510.646154 186.725681 
" clip-path="url(#pb22eec6f23)" style="fill: none"/>
    <path d="M 519.230769 202.24918 
L 519.230769 197.905201 
" clip-path="url(#pb22eec6f23)" style="fill: none"/>
    <path d="M 527.815385 202.24918 
L 527.815385 126.511475 
" clip-path="url(#pb22eec6f23)" style="fill: none"/>
    <path d="M 536.4 202.24918 
L 536.4 207.501924 
" clip-path="url(#pb22eec6f23)" style="fill: none"/>
    <path d="M 553.569231 202.24918 
L 553.569231 210.577449 
" clip-path="url(#pb22eec6f23)" style="fill: none"/>
    <path d="M 562.153846 202.24918 
L 562.153846 200.04242 
" clip-path="url(#pb22eec6f23)" style="fill: none"/>
    <path d="M 579.323077 202.24918 
L 579.323077 199.066189 
" clip-path="url(#pb22eec6f23)" style="fill: none"/>
    <path d="M 596.492308 202.24918 
L 596.492308 197.276518 
" clip-path="url(#pb22eec6f23)" style="fill: none"/>
    <path d="M 605.076923 202.24918 
L 605.076923 210.925049 
" clip-path="url(#pb22eec6f23)" style="fill: none"/>
    <path d="M 613.661538 202.24918 
L 613.661538 202.813532 
" clip-path="url(#pb22eec6f23)" style="fill: none"/>
    <path d="M 622.246154 202.24918 
L 622.246154 208.767363 
" clip-path="url(#pb22eec6f23)" style="fill: none"/>
    <path d="M 630.830769 202.24918 
L 630.830769 207.965347 
" clip-path="url(#pb22eec6f23)" style="fill: none"/>
   </g>
   <g id="line2d_19">
    <defs>
     <path id="m62f54f5fdc" d="M 0 3 
C 0.795609 3 1.55874 2.683901 2.12132 2.12132 
C 2.683901 1.55874 3 0.795609 3 0 
C 3 -0.795609 2.683901 -1.55874 2.12132 -2.12132 
C 1.55874 -2.683901 0.795609 -3 0 -3 
C -0.795609 -3 -1.55874 -2.683901 -2.12132 -2.12132 
C -2.683901 -1.55874 -3 -0.795609 -3 0 
C -3 0.795609 -2.683901 1.55874 -2.12132 2.12132 
C -1.55874 2.683901 -0.795609 3 0 3 
z
" style="stroke: #bfbf00"/>
    </defs>
    <g clip-path="url(#pb22eec6f23)">
     <use xlink:href="#m62f54f5fdc" x="98.584615" y="206.777861" style="fill: #bfbf00; stroke: #bfbf00"/>
     <use xlink:href="#m62f54f5fdc" x="107.169231" y="194.414697" style="fill: #bfbf00; stroke: #bfbf00"/>
     <use xlink:href="#m62f54f5fdc" x="132.923077" y="192.86296" style="fill: #bfbf00; stroke: #bfbf00"/>
     <use xlink:href="#m62f54f5fdc" x="141.507692" y="126.511475" style="fill: #bfbf00; stroke: #bfbf00"/>
     <use xlink:href="#m62f54f5fdc" x="150.092308" y="207.718697" style="fill: #bfbf00; stroke: #bfbf00"/>
     <use xlink:href="#m62f54f5fdc" x="175.846154" y="209.278848" style="fill: #bfbf00; stroke: #bfbf00"/>
     <use xlink:href="#m62f54f5fdc" x="184.430769" y="315.855738" style="fill: #bfbf00; stroke: #bfbf00"/>
     <use xlink:href="#m62f54f5fdc" x="193.015385" y="191.526948" style="fill: #bfbf00; stroke: #bfbf00"/>
     <use xlink:href="#m62f54f5fdc" x="210.184615" y="191.485303" style="fill: #bfbf00; stroke: #bfbf00"/>
     <use xlink:href="#m62f54f5fdc" x="227.353846" y="197.078984" style="fill: #bfbf00; stroke: #bfbf00"/>
     <use xlink:href="#m62f54f5fdc" x="244.523077" y="231.458132" style="fill: #bfbf00; stroke: #bfbf00"/>
     <use xlink:href="#m62f54f5fdc" x="253.107692" y="244.079737" style="fill: #bfbf00; stroke: #bfbf00"/>
     <use xlink:href="#m62f54f5fdc" x="270.276923" y="194.545068" style="fill: #bfbf00; stroke: #bfbf00"/>
     <use xlink:href="#m62f54f5fdc" x="278.861538" y="172.806046" style="fill: #bfbf00; stroke: #bfbf00"/>
     <use xlink:href="#m62f54f5fdc" x="296.030769" y="86.694001" style="fill: #bfbf00; stroke: #bfbf00"/>
     <use xlink:href="#m62f54f5fdc" x="313.2" y="54.686725" style="fill: #bfbf00; stroke: #bfbf00"/>
     <use xlink:href="#m62f54f5fdc" x="321.784615" y="53.015725" style="fill: #bfbf00; stroke: #bfbf00"/>
     <use xlink:href="#m62f54f5fdc" x="330.369231" y="81.601716" style="fill: #bfbf00; stroke: #bfbf00"/>
     <use xlink:href="#m62f54f5fdc" x="338.953846" y="130.617705" style="fill: #bfbf00; stroke: #bfbf00"/>
     <use xlink:href="#m62f54f5fdc" x="356.123077" y="197.924175" style="fill: #bfbf00; stroke: #bfbf00"/>
     <use xlink:href="#m62f54f5fdc" x="373.292308" y="237.332604" style="fill: #bfbf00; stroke: #bfbf00"/>
     <use xlink:href="#m62f54f5fdc" x="381.876923" y="226.770241" style="fill: #bfbf00; stroke: #bfbf00"/>
     <use xlink:href="#m62f54f5fdc" x="390.461538" y="219.771624" style="fill: #bfbf00; stroke: #bfbf00"/>
     <use xlink:href="#m62f54f5fdc" x="416.215385" y="179.118583" style="fill: #bfbf00; stroke: #bfbf00"/>
     <use xlink:href="#m62f54f5fdc" x="441.969231" y="197.595287" style="fill: #bfbf00; stroke: #bfbf00"/>
     <use xlink:href="#m62f54f5fdc" x="450.553846" y="207.231735" style="fill: #bfbf00; stroke: #bfbf00"/>
     <use xlink:href="#m62f54f5fdc" x="459.138462" y="315.855738" style="fill: #bfbf00; stroke: #bfbf00"/>
     <use xlink:href="#m62f54f5fdc" x="476.307692" y="210.561661" style="fill: #bfbf00; stroke: #bfbf00"/>
     <use xlink:href="#m62f54f5fdc" x="493.476923" y="193.457173" style="fill: #bfbf00; stroke: #bfbf00"/>
     <use xlink:href="#m62f54f5fdc" x="510.646154" y="186.725681" style="fill: #bfbf00; stroke: #bfbf00"/>
     <use xlink:href="#m62f54f5fdc" x="519.230769" y="197.905201" style="fill: #bfbf00; stroke: #bfbf00"/>
     <use xlink:href="#m62f54f5fdc" x="527.815385" y="126.511475" style="fill: #bfbf00; stroke: #bfbf00"/>
     <use xlink:href="#m62f54f5fdc" x="536.4" y="207.501924" style="fill: #bfbf00; stroke: #bfbf00"/>
     <use xlink:href="#m62f54f5fdc" x="553.569231" y="210.577449" style="fill: #bfbf00; stroke: #bfbf00"/>
     <use xlink:href="#m62f54f5fdc" x="562.153846" y="200.04242" style="fill: #bfbf00; stroke: #bfbf00"/>
     <use xlink:href="#m62f54f5fdc" x="579.323077" y="199.066189" style="fill: #bfbf00; stroke: #bfbf00"/>
     <use xlink:href="#m62f54f5fdc" x="596.492308" y="197.276518" style="fill: #bfbf00; stroke: #bfbf00"/>
     <use xlink:href="#m62f54f5fdc" x="605.076923" y="210.925049" style="fill: #bfbf00; stroke: #bfbf00"/>
     <use xlink:href="#m62f54f5fdc" x="613.661538" y="202.813532" style="fill: #bfbf00; stroke: #bfbf00"/>
     <use xlink:href="#m62f54f5fdc" x="622.246154" y="208.767363" style="fill: #bfbf00; stroke: #bfbf00"/>
     <use xlink:href="#m62f54f5fdc" x="630.830769" y="207.965347" style="fill: #bfbf00; stroke: #bfbf00"/>
    </g>
   </g>
   <g id="line2d_20"/>
   <g id="LineCollection_2">
    <path d="M 98.584615 202.24918 
L 98.584615 206.777861 
" clip-path="url(#pb22eec6f23)" style="fill: none"/>
    <path d="M 107.169231 202.24918 
L 107.169231 194.414697 
" clip-path="url(#pb22eec6f23)" style="fill: none"/>
    <path d="M 115.753846 202.24918 
L 115.753846 193.389974 
" clip-path="url(#pb22eec6f23)" style="fill: none"/>
    <path d="M 124.338462 202.24918 
L 124.338462 191.888762 
" clip-path="url(#pb22eec6f23)" style="fill: none"/>
    <path d="M 132.923077 202.24918 
L 132.923077 192.86296 
" clip-path="url(#pb22eec6f23)" style="fill: none"/>
    <path d="M 141.507692 202.24918 
L 141.507692 126.511475 
" clip-path="url(#pb22eec6f23)" style="fill: none"/>
    <path d="M 150.092308 202.24918 
L 150.092308 207.718697 
" clip-path="url(#pb22eec6f23)" style="fill: none"/>
    <path d="M 158.676923 202.24918 
L 158.676923 211.740173 
" clip-path="url(#pb22eec6f23)" style="fill: none"/>
    <path d="M 167.261538 202.24918 
L 167.261538 215.99219 
" clip-path="url(#pb22eec6f23)" style="fill: none"/>
    <path d="M 175.846154 202.24918 
L 175.846154 209.278848 
" clip-path="url(#pb22eec6f23)" style="fill: none"/>
    <path d="M 184.430769 202.24918 
L 184.430769 315.855738 
" clip-path="url(#pb22eec6f23)" style="fill: none"/>
    <path d="M 193.015385 202.24918 
L 193.015385 191.526948 
" clip-path="url(#pb22eec6f23)" style="fill: none"/>
    <path d="M 201.6 202.24918 
L 201.6 187.933451 
" clip-path="url(#pb22eec6f23)" style="fill: none"/>
    <path d="M 210.184615 202.24918 
L 210.184615 191.485303 
" clip-path="url(#pb22eec6f23)" style="fill: none"/>
    <path d="M 218.769231 202.24918 
L 218.769231 191.363347 
" clip-path="url(#pb22eec6f23)" style="fill: none"/>
    <path d="M 227.353846 202.24918 
L 227.353846 197.078984 
" clip-path="url(#pb22eec6f23)" style="fill: none"/>
    <path d="M 235.938462 202.24918 
L 235.938462 216.679925 
" clip-path="url(#pb22eec6f23)" style="fill: none"/>
    <path d="M 244.523077 202.24918 
L 244.523077 231.458132 
" clip-path="url(#pb22eec6f23)" style="fill: none"/>
    <path d="M 253.107692 202.24918 
L 253.107692 244.079737 
" clip-path="url(#pb22eec6f23)" style="fill: none"/>
    <path d="M 261.692308 202.24918 
L 261.692308 227.613195 
" clip-path="url(#pb22eec6f23)" style="fill: none"/>
    <path d="M 270.276923 202.24918 
L 270.276923 194.545068 
" clip-path="url(#pb22eec6f23)" style="fill: none"/>
    <path d="M 278.861538 202.24918 
L 278.861538 172.806046 
" clip-path="url(#pb22eec6f23)" style="fill: none"/>
    <path d="M 287.446154 202.24918 
L 287.446154 125.108895 
" clip-path="url(#pb22eec6f23)" style="fill: none"/>
    <path d="M 296.030769 202.24918 
L 296.030769 86.694001 
" clip-path="url(#pb22eec6f23)" style="fill: none"/>
    <path d="M 304.615385 202.24918 
L 304.615385 64.87048 
" clip-path="url(#pb22eec6f23)" style="fill: none"/>
    <path d="M 313.2 202.24918 
L 313.2 54.686725 
" clip-path="url(#pb22eec6f23)" style="fill: none"/>
    <path d="M 321.784615 202.24918 
L 321.784615 53.015725 
" clip-path="url(#pb22eec6f23)" style="fill: none"/>
    <path d="M 330.369231 202.24918 
L 330.369231 81.601716 
" clip-path="url(#pb22eec6f23)" style="fill: none"/>
    <path d="M 338.953846 202.24918 
L 338.953846 130.617705 
" clip-path="url(#pb22eec6f23)" style="fill: none"/>
    <path d="M 347.538462 202.24918 
L 347.538462 166.408548 
" clip-path="url(#pb22eec6f23)" style="fill: none"/>
    <path d="M 356.123077 202.24918 
L 356.123077 197.924175 
" clip-path="url(#pb22eec6f23)" style="fill: none"/>
    <path d="M 364.707692 202.24918 
L 364.707692 221.30834 
" clip-path="url(#pb22eec6f23)" style="fill: none"/>
    <path d="M 373.292308 202.24918 
L 373.292308 237.332604 
" clip-path="url(#pb22eec6f23)" style="fill: none"/>
    <path d="M 381.876923 202.24918 
L 381.876923 226.770241 
" clip-path="url(#pb22eec6f23)" style="fill: none"/>
    <path d="M 390.461538 202.24918 
L 390.461538 219.771624 
" clip-path="url(#pb22eec6f23)" style="fill: none"/>
    <path d="M 399.046154 202.24918 
L 399.046154 201.635258 
" clip-path="url(#pb22eec6f23)" style="fill: none"/>
    <path d="M 407.630769 202.24918 
L 407.630769 188.486162 
" clip-path="url(#pb22eec6f23)" style="fill: none"/>
    <path d="M 416.215385 202.24918 
L 416.215385 179.118583 
" clip-path="url(#pb22eec6f23)" style="fill: none"/>
    <path d="M 424.8 202.24918 
L 424.8 181.796392 
" clip-path="url(#pb22eec6f23)" style="fill: none"/>
    <path d="M 433.384615 202.24918 
L 433.384615 185.735974 
" clip-path="url(#pb22eec6f23)" style="fill: none"/>
    <path d="M 441.969231 202.24918 
L 441.969231 197.595287 
" clip-path="url(#pb22eec6f23)" style="fill: none"/>
    <path d="M 450.553846 202.24918 
L 450.553846 207.231735 
" clip-path="url(#pb22eec6f23)" style="fill: none"/>
    <path d="M 459.138462 202.24918 
L 459.138462 315.855738 
" clip-path="url(#pb22eec6f23)" style="fill: none"/>
    <path d="M 467.723077 202.24918 
L 467.723077 223.288557 
" clip-path="url(#pb22eec6f23)" style="fill: none"/>
    <path d="M 476.307692 202.24918 
L 476.307692 210.561661 
" clip-path="url(#pb22eec6f23)" style="fill: none"/>
    <path d="M 484.892308 202.24918 
L 484.892308 201.334233 
" clip-path="url(#pb22eec6f23)" style="fill: none"/>
    <path d="M 493.476923 202.24918 
L 493.476923 193.457173 
" clip-path="url(#pb22eec6f23)" style="fill: none"/>
    <path d="M 502.061538 202.24918 
L 502.061538 189.580683 
" clip-path="url(#pb22eec6f23)" style="fill: none"/>
    <path d="M 510.646154 202.24918 
L 510.646154 186.725681 
" clip-path="url(#pb22eec6f23)" style="fill: none"/>
    <path d="M 519.230769 202.24918 
L 519.230769 197.905201 
" clip-path="url(#pb22eec6f23)" style="fill: none"/>
    <path d="M 527.815385 202.24918 
L 527.815385 126.511475 
" clip-path="url(#pb22eec6f23)" style="fill: none"/>
    <path d="M 536.4 202.24918 
L 536.4 207.501924 
" clip-path="url(#pb22eec6f23)" style="fill: none"/>
    <path d="M 544.984615 202.24918 
L 544.984615 206.842197 
" clip-path="url(#pb22eec6f23)" style="fill: none"/>
    <path d="M 553.569231 202.24918 
L 553.569231 210.577449 
" clip-path="url(#pb22eec6f23)" style="fill: none"/>
    <path d="M 562.153846 202.24918 
L 562.153846 200.04242 
" clip-path="url(#pb22eec6f23)" style="fill: none"/>
    <path d="M 570.738462 202.24918 
L 570.738462 200.122098 
" clip-path="url(#pb22eec6f23)" style="fill: none"/>
    <path d="M 579.323077 202.24918 
L 579.323077 199.066189 
" clip-path="url(#pb22eec6f23)" style="fill: none"/>
    <path d="M 587.907692 202.24918 
L 587.907692 197.866956 
" clip-path="url(#pb22eec6f23)" style="fill: none"/>
    <path d="M 596.492308 202.24918 
L 596.492308 197.276518 
" clip-path="url(#pb22eec6f23)" style="fill: none"/>
    <path d="M 605.076923 202.24918 
L 605.076923 210.925049 
" clip-path="url(#pb22eec6f23)" style="fill: none"/>
    <path d="M 613.661538 202.24918 
L 613.661538 202.813532 
" clip-path="url(#pb22eec6f23)" style="fill: none"/>
    <path d="M 622.246154 202.24918 
L 622.246154 208.767363 
" clip-path="url(#pb22eec6f23)" style="fill: none"/>
    <path d="M 630.830769 202.24918 
L 630.830769 207.965347 
" clip-path="url(#pb22eec6f23)" style="fill: none"/>
   </g>
   <g id="line2d_21">
    <defs>
     <path id="mc2ae857c7f" d="M 0 1.5 
C 0.397805 1.5 0.77937 1.341951 1.06066 1.06066 
C 1.341951 0.77937 1.5 0.397805 1.5 0 
C 1.5 -0.397805 1.341951 -0.77937 1.06066 -1.06066 
C 0.77937 -1.341951 0.397805 -1.5 0 -1.5 
C -0.397805 -1.5 -0.77937 -1.341951 -1.06066 -1.06066 
C -1.341951 -0.77937 -1.5 -0.397805 -1.5 0 
C -1.5 0.397805 -1.341951 0.77937 -1.06066 1.06066 
C -0.77937 1.341951 -0.397805 1.5 0 1.5 
z
" style="stroke: #000000"/>
    </defs>
    <g clip-path="url(#pb22eec6f23)">
     <use xlink:href="#mc2ae857c7f" x="98.584615" y="206.777861" style="stroke: #000000"/>
     <use xlink:href="#mc2ae857c7f" x="107.169231" y="194.414697" style="stroke: #000000"/>
     <use xlink:href="#mc2ae857c7f" x="115.753846" y="193.389974" style="stroke: #000000"/>
     <use xlink:href="#mc2ae857c7f" x="124.338462" y="191.888762" style="stroke: #000000"/>
     <use xlink:href="#mc2ae857c7f" x="132.923077" y="192.86296" style="stroke: #000000"/>
     <use xlink:href="#mc2ae857c7f" x="141.507692" y="126.511475" style="stroke: #000000"/>
     <use xlink:href="#mc2ae857c7f" x="150.092308" y="207.718697" style="stroke: #000000"/>
     <use xlink:href="#mc2ae857c7f" x="158.676923" y="211.740173" style="stroke: #000000"/>
     <use xlink:href="#mc2ae857c7f" x="167.261538" y="215.99219" style="stroke: #000000"/>
     <use xlink:href="#mc2ae857c7f" x="175.846154" y="209.278848" style="stroke: #000000"/>
     <use xlink:href="#mc2ae857c7f" x="184.430769" y="315.855738" style="stroke: #000000"/>
     <use xlink:href="#mc2ae857c7f" x="193.015385" y="191.526948" style="stroke: #000000"/>
     <use xlink:href="#mc2ae857c7f" x="201.6" y="187.933451" style="stroke: #000000"/>
     <use xlink:href="#mc2ae857c7f" x="210.184615" y="191.485303" style="stroke: #000000"/>
     <use xlink:href="#mc2ae857c7f" x="218.769231" y="191.363347" style="stroke: #000000"/>
     <use xlink:href="#mc2ae857c7f" x="227.353846" y="197.078984" style="stroke: #000000"/>
     <use xlink:href="#mc2ae857c7f" x="235.938462" y="216.679925" style="stroke: #000000"/>
     <use xlink:href="#mc2ae857c7f" x="244.523077" y="231.458132" style="stroke: #000000"/>
     <use xlink:href="#mc2ae857c7f" x="253.107692" y="244.079737" style="stroke: #000000"/>
     <use xlink:href="#mc2ae857c7f" x="261.692308" y="227.613195" style="stroke: #000000"/>
     <use xlink:href="#mc2ae857c7f" x="270.276923" y="194.545068" style="stroke: #000000"/>
     <use xlink:href="#mc2ae857c7f" x="278.861538" y="172.806046" style="stroke: #000000"/>
     <use xlink:href="#mc2ae857c7f" x="287.446154" y="125.108895" style="stroke: #000000"/>
     <use xlink:href="#mc2ae857c7f" x="296.030769" y="86.694001" style="stroke: #000000"/>
     <use xlink:href="#mc2ae857c7f" x="304.615385" y="64.87048" style="stroke: #000000"/>
     <use xlink:href="#mc2ae857c7f" x="313.2" y="54.686725" style="stroke: #000000"/>
     <use xlink:href="#mc2ae857c7f" x="321.784615" y="53.015725" style="stroke: #000000"/>
     <use xlink:href="#mc2ae857c7f" x="330.369231" y="81.601716" style="stroke: #000000"/>
     <use xlink:href="#mc2ae857c7f" x="338.953846" y="130.617705" style="stroke: #000000"/>
     <use xlink:href="#mc2ae857c7f" x="347.538462" y="166.408548" style="stroke: #000000"/>
     <use xlink:href="#mc2ae857c7f" x="356.123077" y="197.924175" style="stroke: #000000"/>
     <use xlink:href="#mc2ae857c7f" x="364.707692" y="221.30834" style="stroke: #000000"/>
     <use xlink:href="#mc2ae857c7f" x="373.292308" y="237.332604" style="stroke: #000000"/>
     <use xlink:href="#mc2ae857c7f" x="381.876923" y="226.770241" style="stroke: #000000"/>
     <use xlink:href="#mc2ae857c7f" x="390.461538" y="219.771624" style="stroke: #000000"/>
     <use xlink:href="#mc2ae857c7f" x="399.046154" y="201.635258" style="stroke: #000000"/>
     <use xlink:href="#mc2ae857c7f" x="407.630769" y="188.486162" style="stroke: #000000"/>
     <use xlink:href="#mc2ae857c7f" x="416.215385" y="179.118583" style="stroke: #000000"/>
     <use xlink:href="#mc2ae857c7f" x="424.8" y="181.796392" style="stroke: #000000"/>
     <use xlink:href="#mc2ae857c7f" x="433.384615" y="185.735974" style="stroke: #000000"/>
     <use xlink:href="#mc2ae857c7f" x="441.969231" y="197.595287" style="stroke: #000000"/>
     <use xlink:href="#mc2ae857c7f" x="450.553846" y="207.231735" style="stroke: #000000"/>
     <use xlink:href="#mc2ae857c7f" x="459.138462" y="315.855738" style="stroke: #000000"/>
     <use xlink:href="#mc2ae857c7f" x="467.723077" y="223.288557" style="stroke: #000000"/>
     <use xlink:href="#mc2ae857c7f" x="476.307692" y="210.561661" style="stroke: #000000"/>
     <use xlink:href="#mc2ae857c7f" x="484.892308" y="201.334233" style="stroke: #000000"/>
     <use xlink:href="#mc2ae857c7f" x="493.476923" y="193.457173" style="stroke: #000000"/>
     <use xlink:href="#mc2ae857c7f" x="502.061538" y="189.580683" style="stroke: #000000"/>
     <use xlink:href="#mc2ae857c7f" x="510.646154" y="186.725681" style="stroke: #000000"/>
     <use xlink:href="#mc2ae857c7f" x="519.230769" y="197.905201" style="stroke: #000000"/>
     <use xlink:href="#mc2ae857c7f" x="527.815385" y="126.511475" style="stroke: #000000"/>
     <use xlink:href="#mc2ae857c7f" x="536.4" y="207.501924" style="stroke: #000000"/>
     <use xlink:href="#mc2ae857c7f" x="544.984615" y="206.842197" style="stroke: #000000"/>
     <use xlink:href="#mc2ae857c7f" x="553.569231" y="210.577449" style="stroke: #000000"/>
     <use xlink:href="#mc2ae857c7f" x="562.153846" y="200.04242" style="stroke: #000000"/>
     <use xlink:href="#mc2ae857c7f" x="570.738462" y="200.122098" style="stroke: #000000"/>
     <use xlink:href="#mc2ae857c7f" x="579.323077" y="199.066189" style="stroke: #000000"/>
     <use xlink:href="#mc2ae857c7f" x="587.907692" y="197.866956" style="stroke: #000000"/>
     <use xlink:href="#mc2ae857c7f" x="596.492308" y="197.276518" style="stroke: #000000"/>
     <use xlink:href="#mc2ae857c7f" x="605.076923" y="210.925049" style="stroke: #000000"/>
     <use xlink:href="#mc2ae857c7f" x="613.661538" y="202.813532" style="stroke: #000000"/>
     <use xlink:href="#mc2ae857c7f" x="622.246154" y="208.767363" style="stroke: #000000"/>
     <use xlink:href="#mc2ae857c7f" x="630.830769" y="207.965347" style="stroke: #000000"/>
    </g>
   </g>
   <g id="line2d_22"/>
   <g id="patch_3">
    <path d="M 90 320.4 
L 90 43.2 
" style="fill: none; stroke: #000000; stroke-width: 0.8; stroke-linejoin: miter; stroke-linecap: square"/>
   </g>
   <g id="patch_4">
    <path d="M 648 320.4 
L 648 43.2 
" style="fill: none; stroke: #000000; stroke-width: 0.8; stroke-linejoin: miter; stroke-linecap: square"/>
   </g>
   <g id="patch_5">
    <path d="M 90 320.4 
L 648 320.4 
" style="fill: none; stroke: #000000; stroke-width: 0.8; stroke-linejoin: miter; stroke-linecap: square"/>
   </g>
   <g id="patch_6">
    <path d="M 90 43.2 
L 648 43.2 
" style="fill: none; stroke: #000000; stroke-width: 0.8; stroke-linejoin: miter; stroke-linecap: square"/>
   </g>
   <g id="text_19">
    <!-- Support Vector Regression fit, C = 1, epsilon = 0.02, gamma = 2.78 -->
    <g transform="translate(164.515313 37.2) scale(0.12 -0.12)">
     <defs>
      <path id="DejaVuSans-53" d="M 3425 4513 
L 3425 3897 
Q 3066 4069 2747 4153 
Q 2428 4238 2131 4238 
Q 1616 4238 1336 4038 
Q 1056 3838 1056 3469 
Q 1056 3159 1242 3001 
Q 1428 2844 1947 2747 
L 2328 2669 
Q 3034 2534 3370 2195 
Q 3706 1856 3706 1288 
Q 3706 609 3251 259 
Q 2797 -91 1919 -91 
Q 1588 -91 1214 -16 
Q 841 59 441 206 
L 441 856 
Q 825 641 1194 531 
Q 1563 422 1919 422 
Q 2459 422 2753 634 
Q 3047 847 3047 1241 
Q 3047 1584 2836 1778 
Q 2625 1972 2144 2069 
L 1759 2144 
Q 1053 2284 737 2584 
Q 422 2884 422 3419 
Q 422 4038 858 4394 
Q 1294 4750 2059 4750 
Q 2388 4750 2728 4690 
Q 3069 4631 3425 4513 
z
" transform="scale(0.015625)"/>
      <path id="DejaVuSans-75" d="M 544 1381 
L 544 3500 
L 1119 3500 
L 1119 1403 
Q 1119 906 1312 657 
Q 1506 409 1894 409 
Q 2359 409 2629 706 
Q 2900 1003 2900 1516 
L 2900 3500 
L 3475 3500 
L 3475 0 
L 2900 0 
L 2900 538 
Q 2691 219 2414 64 
Q 2138 -91 1772 -91 
Q 1169 -91 856 284 
Q 544 659 544 1381 
z
M 1991 3584 
L 1991 3584 
z
" transform="scale(0.015625)"/>
      <path id="DejaVuSans-70" d="M 1159 525 
L 1159 -1331 
L 581 -1331 
L 581 3500 
L 1159 3500 
L 1159 2969 
Q 1341 3281 1617 3432 
Q 1894 3584 2278 3584 
Q 2916 3584 3314 3078 
Q 3713 2572 3713 1747 
Q 3713 922 3314 415 
Q 2916 -91 2278 -91 
Q 1894 -91 1617 61 
Q 1341 213 1159 525 
z
M 3116 1747 
Q 3116 2381 2855 2742 
Q 2594 3103 2138 3103 
Q 1681 3103 1420 2742 
Q 1159 2381 1159 1747 
Q 1159 1113 1420 752 
Q 1681 391 2138 391 
Q 2594 391 2855 752 
Q 3116 1113 3116 1747 
z
" transform="scale(0.015625)"/>
      <path id="DejaVuSans-6f" d="M 1959 3097 
Q 1497 3097 1228 2736 
Q 959 2375 959 1747 
Q 959 1119 1226 758 
Q 1494 397 1959 397 
Q 2419 397 2687 759 
Q 2956 1122 2956 1747 
Q 2956 2369 2687 2733 
Q 2419 3097 1959 3097 
z
M 1959 3584 
Q 2709 3584 3137 3096 
Q 3566 2609 3566 1747 
Q 3566 888 3137 398 
Q 2709 -91 1959 -91 
Q 1206 -91 779 398 
Q 353 888 353 1747 
Q 353 2609 779 3096 
Q 1206 3584 1959 3584 
z
" transform="scale(0.015625)"/>
      <path id="DejaVuSans-72" d="M 2631 2963 
Q 2534 3019 2420 3045 
Q 2306 3072 2169 3072 
Q 1681 3072 1420 2755 
Q 1159 2438 1159 1844 
L 1159 0 
L 581 0 
L 581 3500 
L 1159 3500 
L 1159 2956 
Q 1341 3275 1631 3429 
Q 1922 3584 2338 3584 
Q 2397 3584 2469 3576 
Q 2541 3569 2628 3553 
L 2631 2963 
z
" transform="scale(0.015625)"/>
      <path id="DejaVuSans-56" d="M 1831 0 
L 50 4666 
L 709 4666 
L 2188 738 
L 3669 4666 
L 4325 4666 
L 2547 0 
L 1831 0 
z
" transform="scale(0.015625)"/>
      <path id="DejaVuSans-63" d="M 3122 3366 
L 3122 2828 
Q 2878 2963 2633 3030 
Q 2388 3097 2138 3097 
Q 1578 3097 1268 2742 
Q 959 2388 959 1747 
Q 959 1106 1268 751 
Q 1578 397 2138 397 
Q 2388 397 2633 464 
Q 2878 531 3122 666 
L 3122 134 
Q 2881 22 2623 -34 
Q 2366 -91 2075 -91 
Q 1284 -91 818 406 
Q 353 903 353 1747 
Q 353 2603 823 3093 
Q 1294 3584 2113 3584 
Q 2378 3584 2631 3529 
Q 2884 3475 3122 3366 
z
" transform="scale(0.015625)"/>
      <path id="DejaVuSans-52" d="M 2841 2188 
Q 3044 2119 3236 1894 
Q 3428 1669 3622 1275 
L 4263 0 
L 3584 0 
L 2988 1197 
Q 2756 1666 2539 1819 
Q 2322 1972 1947 1972 
L 1259 1972 
L 1259 0 
L 628 0 
L 628 4666 
L 2053 4666 
Q 2853 4666 3247 4331 
Q 3641 3997 3641 3322 
Q 3641 2881 3436 2590 
Q 3231 2300 2841 2188 
z
M 1259 4147 
L 1259 2491 
L 2053 2491 
Q 2509 2491 2742 2702 
Q 2975 2913 2975 3322 
Q 2975 3731 2742 3939 
Q 2509 4147 2053 4147 
L 1259 4147 
z
" transform="scale(0.015625)"/>
      <path id="DejaVuSans-67" d="M 2906 1791 
Q 2906 2416 2648 2759 
Q 2391 3103 1925 3103 
Q 1463 3103 1205 2759 
Q 947 2416 947 1791 
Q 947 1169 1205 825 
Q 1463 481 1925 481 
Q 2391 481 2648 825 
Q 2906 1169 2906 1791 
z
M 3481 434 
Q 3481 -459 3084 -895 
Q 2688 -1331 1869 -1331 
Q 1566 -1331 1297 -1286 
Q 1028 -1241 775 -1147 
L 775 -588 
Q 1028 -725 1275 -790 
Q 1522 -856 1778 -856 
Q 2344 -856 2625 -561 
Q 2906 -266 2906 331 
L 2906 616 
Q 2728 306 2450 153 
Q 2172 0 1784 0 
Q 1141 0 747 490 
Q 353 981 353 1791 
Q 353 2603 747 3093 
Q 1141 3584 1784 3584 
Q 2172 3584 2450 3431 
Q 2728 3278 2906 2969 
L 2906 3500 
L 3481 3500 
L 3481 434 
z
" transform="scale(0.015625)"/>
      <path id="DejaVuSans-73" d="M 2834 3397 
L 2834 2853 
Q 2591 2978 2328 3040 
Q 2066 3103 1784 3103 
Q 1356 3103 1142 2972 
Q 928 2841 928 2578 
Q 928 2378 1081 2264 
Q 1234 2150 1697 2047 
L 1894 2003 
Q 2506 1872 2764 1633 
Q 3022 1394 3022 966 
Q 3022 478 2636 193 
Q 2250 -91 1575 -91 
Q 1294 -91 989 -36 
Q 684 19 347 128 
L 347 722 
Q 666 556 975 473 
Q 1284 391 1588 391 
Q 1994 391 2212 530 
Q 2431 669 2431 922 
Q 2431 1156 2273 1281 
Q 2116 1406 1581 1522 
L 1381 1569 
Q 847 1681 609 1914 
Q 372 2147 372 2553 
Q 372 3047 722 3315 
Q 1072 3584 1716 3584 
Q 2034 3584 2315 3537 
Q 2597 3491 2834 3397 
z
" transform="scale(0.015625)"/>
      <path id="DejaVuSans-6e" d="M 3513 2113 
L 3513 0 
L 2938 0 
L 2938 2094 
Q 2938 2591 2744 2837 
Q 2550 3084 2163 3084 
Q 1697 3084 1428 2787 
Q 1159 2491 1159 1978 
L 1159 0 
L 581 0 
L 581 3500 
L 1159 3500 
L 1159 2956 
Q 1366 3272 1645 3428 
Q 1925 3584 2291 3584 
Q 2894 3584 3203 3211 
Q 3513 2838 3513 2113 
z
" transform="scale(0.015625)"/>
      <path id="DejaVuSans-66" d="M 2375 4863 
L 2375 4384 
L 1825 4384 
Q 1516 4384 1395 4259 
Q 1275 4134 1275 3809 
L 1275 3500 
L 2222 3500 
L 2222 3053 
L 1275 3053 
L 1275 0 
L 697 0 
L 697 3053 
L 147 3053 
L 147 3500 
L 697 3500 
L 697 3744 
Q 697 4328 969 4595 
Q 1241 4863 1831 4863 
L 2375 4863 
z
" transform="scale(0.015625)"/>
      <path id="DejaVuSans-2c" d="M 750 794 
L 1409 794 
L 1409 256 
L 897 -744 
L 494 -744 
L 750 256 
L 750 794 
z
" transform="scale(0.015625)"/>
      <path id="DejaVuSans-43" d="M 4122 4306 
L 4122 3641 
Q 3803 3938 3442 4084 
Q 3081 4231 2675 4231 
Q 1875 4231 1450 3742 
Q 1025 3253 1025 2328 
Q 1025 1406 1450 917 
Q 1875 428 2675 428 
Q 3081 428 3442 575 
Q 3803 722 4122 1019 
L 4122 359 
Q 3791 134 3420 21 
Q 3050 -91 2638 -91 
Q 1578 -91 968 557 
Q 359 1206 359 2328 
Q 359 3453 968 4101 
Q 1578 4750 2638 4750 
Q 3056 4750 3426 4639 
Q 3797 4528 4122 4306 
z
" transform="scale(0.015625)"/>
      <path id="DejaVuSans-3d" d="M 678 2906 
L 4684 2906 
L 4684 2381 
L 678 2381 
L 678 2906 
z
M 678 1631 
L 4684 1631 
L 4684 1100 
L 678 1100 
L 678 1631 
z
" transform="scale(0.015625)"/>
      <path id="DejaVuSans-6c" d="M 603 4863 
L 1178 4863 
L 1178 0 
L 603 0 
L 603 4863 
z
" transform="scale(0.015625)"/>
      <path id="DejaVuSans-61" d="M 2194 1759 
Q 1497 1759 1228 1600 
Q 959 1441 959 1056 
Q 959 750 1161 570 
Q 1363 391 1709 391 
Q 2188 391 2477 730 
Q 2766 1069 2766 1631 
L 2766 1759 
L 2194 1759 
z
M 3341 1997 
L 3341 0 
L 2766 0 
L 2766 531 
Q 2569 213 2275 61 
Q 1981 -91 1556 -91 
Q 1019 -91 701 211 
Q 384 513 384 1019 
Q 384 1609 779 1909 
Q 1175 2209 1959 2209 
L 2766 2209 
L 2766 2266 
Q 2766 2663 2505 2880 
Q 2244 3097 1772 3097 
Q 1472 3097 1187 3025 
Q 903 2953 641 2809 
L 641 3341 
Q 956 3463 1253 3523 
Q 1550 3584 1831 3584 
Q 2591 3584 2966 3190 
Q 3341 2797 3341 1997 
z
" transform="scale(0.015625)"/>
     </defs>
     <use xlink:href="#DejaVuSans-53"/>
     <use xlink:href="#DejaVuSans-75" x="63.476562"/>
     <use xlink:href="#DejaVuSans-70" x="126.855469"/>
     <use xlink:href="#DejaVuSans-70" x="190.332031"/>
     <use xlink:href="#DejaVuSans-6f" x="253.808594"/>
     <use xlink:href="#DejaVuSans-72" x="314.990234"/>
     <use xlink:href="#DejaVuSans-74" x="356.103516"/>
     <use xlink:href="#DejaVuSans-20" x="395.3125"/>
     <use xlink:href="#DejaVuSans-56" x="427.099609"/>
     <use xlink:href="#DejaVuSans-65" x="487.757812"/>
     <use xlink:href="#DejaVuSans-63" x="549.28125"/>
     <use xlink:href="#DejaVuSans-74" x="604.261719"/>
     <use xlink:href="#DejaVuSans-6f" x="643.470703"/>
     <use xlink:href="#DejaVuSans-72" x="704.652344"/>
     <use xlink:href="#DejaVuSans-20" x="745.765625"/>
     <use xlink:href="#DejaVuSans-52" x="777.552734"/>
     <use xlink:href="#DejaVuSans-65" x="842.535156"/>
     <use xlink:href="#DejaVuSans-67" x="904.058594"/>
     <use xlink:href="#DejaVuSans-72" x="967.535156"/>
     <use xlink:href="#DejaVuSans-65" x="1006.398438"/>
     <use xlink:href="#DejaVuSans-73" x="1067.921875"/>
     <use xlink:href="#DejaVuSans-73" x="1120.021484"/>
     <use xlink:href="#DejaVuSans-69" x="1172.121094"/>
     <use xlink:href="#DejaVuSans-6f" x="1199.904297"/>
     <use xlink:href="#DejaVuSans-6e" x="1261.085938"/>
     <use xlink:href="#DejaVuSans-20" x="1324.464844"/>
     <use xlink:href="#DejaVuSans-66" x="1356.251953"/>
     <use xlink:href="#DejaVuSans-69" x="1391.457031"/>
     <use xlink:href="#DejaVuSans-74" x="1419.240234"/>
     <use xlink:href="#DejaVuSans-2c" x="1458.449219"/>
     <use xlink:href="#DejaVuSans-20" x="1490.236328"/>
     <use xlink:href="#DejaVuSans-43" x="1522.023438"/>
     <use xlink:href="#DejaVuSans-20" x="1591.847656"/>
     <use xlink:href="#DejaVuSans-3d" x="1623.634766"/>
     <use xlink:href="#DejaVuSans-20" x="1707.423828"/>
     <use xlink:href="#DejaVuSans-31" x="1739.210938"/>
     <use xlink:href="#DejaVuSans-2c" x="1802.833984"/>
     <use xlink:href="#DejaVuSans-20" x="1834.621094"/>
     <use xlink:href="#DejaVuSans-65" x="1866.408203"/>
     <use xlink:href="#DejaVuSans-70" x="1927.931641"/>
     <use xlink:href="#DejaVuSans-73" x="1991.408203"/>
     <use xlink:href="#DejaVuSans-69" x="2043.507812"/>
     <use xlink:href="#DejaVuSans-6c" x="2071.291016"/>
     <use xlink:href="#DejaVuSans-6f" x="2099.074219"/>
     <use xlink:href="#DejaVuSans-6e" x="2160.255859"/>
     <use xlink:href="#DejaVuSans-20" x="2223.634766"/>
     <use xlink:href="#DejaVuSans-3d" x="2255.421875"/>
     <use xlink:href="#DejaVuSans-20" x="2339.210938"/>
     <use xlink:href="#DejaVuSans-30" x="2370.998047"/>
     <use xlink:href="#DejaVuSans-2e" x="2434.621094"/>
     <use xlink:href="#DejaVuSans-30" x="2466.408203"/>
     <use xlink:href="#DejaVuSans-32" x="2530.03125"/>
     <use xlink:href="#DejaVuSans-2c" x="2593.654297"/>
     <use xlink:href="#DejaVuSans-20" x="2625.441406"/>
     <use xlink:href="#DejaVuSans-67" x="2657.228516"/>
     <use xlink:href="#DejaVuSans-61" x="2720.705078"/>
     <use xlink:href="#DejaVuSans-6d" x="2781.984375"/>
     <use xlink:href="#DejaVuSans-6d" x="2879.396484"/>
     <use xlink:href="#DejaVuSans-61" x="2976.808594"/>
     <use xlink:href="#DejaVuSans-20" x="3038.087891"/>
     <use xlink:href="#DejaVuSans-3d" x="3069.875"/>
     <use xlink:href="#DejaVuSans-20" x="3153.664062"/>
     <use xlink:href="#DejaVuSans-32" x="3185.451172"/>
     <use xlink:href="#DejaVuSans-2e" x="3249.074219"/>
     <use xlink:href="#DejaVuSans-37" x="3280.861328"/>
     <use xlink:href="#DejaVuSans-38" x="3344.484375"/>
    </g>
   </g>
   <g id="legend_1">
    <g id="patch_7">
     <path d="M 510.482813 124.590625 
L 641 124.590625 
Q 643 124.590625 643 122.590625 
L 643 50.2 
Q 643 48.2 641 48.2 
L 510.482813 48.2 
Q 508.482813 48.2 508.482813 50.2 
L 508.482813 122.590625 
Q 508.482813 124.590625 510.482813 124.590625 
z
" style="fill: #ffffff; opacity: 0.8; stroke: #cccccc; stroke-linejoin: miter"/>
    </g>
    <g id="line2d_23">
     <path d="M 512.482813 56.298437 
L 522.482813 56.298437 
L 532.482813 56.298437 
" style="fill: none; stroke-dasharray: 5.55,2.4; stroke-dashoffset: 0; stroke: #0000ff; stroke-width: 1.5"/>
    </g>
    <g id="text_20">
     <!-- SVR argmax = 5.05 -->
     <g transform="translate(540.482813 59.798437) scale(0.1 -0.1)">
      <defs>
       <path id="DejaVuSans-78" d="M 3513 3500 
L 2247 1797 
L 3578 0 
L 2900 0 
L 1881 1375 
L 863 0 
L 184 0 
L 1544 1831 
L 300 3500 
L 978 3500 
L 1906 2253 
L 2834 3500 
L 3513 3500 
z
" transform="scale(0.015625)"/>
      </defs>
      <use xlink:href="#DejaVuSans-53"/>
      <use xlink:href="#DejaVuSans-56" x="63.476562"/>
      <use xlink:href="#DejaVuSans-52" x="131.884766"/>
      <use xlink:href="#DejaVuSans-20" x="201.367188"/>
      <use xlink:href="#DejaVuSans-61" x="233.154297"/>
      <use xlink:href="#DejaVuSans-72" x="294.433594"/>
      <use xlink:href="#DejaVuSans-67" x="333.796875"/>
      <use xlink:href="#DejaVuSans-6d" x="397.273438"/>
      <use xlink:href="#DejaVuSans-61" x="494.685547"/>
      <use xlink:href="#DejaVuSans-78" x="555.964844"/>
      <use xlink:href="#DejaVuSans-20" x="615.144531"/>
      <use xlink:href="#DejaVuSans-3d" x="646.931641"/>
      <use xlink:href="#DejaVuSans-20" x="730.720703"/>
      <use xlink:href="#DejaVuSans-35" x="762.507812"/>
      <use xlink:href="#DejaVuSans-2e" x="826.130859"/>
      <use xlink:href="#DejaVuSans-30" x="857.917969"/>
      <use xlink:href="#DejaVuSans-35" x="921.541016"/>
     </g>
    </g>
    <g id="line2d_24">
     <path d="M 512.482813 70.976562 
L 522.482813 70.976562 
L 532.482813 70.976562 
" style="fill: none; stroke: #008000; stroke-width: 1.5; stroke-linecap: square"/>
    </g>
    <g id="text_21">
     <!-- SVR fit -->
     <g transform="translate(540.482813 74.476562) scale(0.1 -0.1)">
      <use xlink:href="#DejaVuSans-53"/>
      <use xlink:href="#DejaVuSans-56" x="63.476562"/>
      <use xlink:href="#DejaVuSans-52" x="131.884766"/>
      <use xlink:href="#DejaVuSans-20" x="201.367188"/>
      <use xlink:href="#DejaVuSans-66" x="233.154297"/>
      <use xlink:href="#DejaVuSans-69" x="268.359375"/>
      <use xlink:href="#DejaVuSans-74" x="296.142578"/>
     </g>
    </g>
    <g id="PathCollection_2">
     <g>
      <use xlink:href="#m3f18d9bfd2" x="522.482813" y="86.529687" style="fill: #ff0000; stroke: #ff0000"/>
     </g>
    </g>
    <g id="text_22">
     <!-- outliers -->
     <g transform="translate(540.482813 89.154687) scale(0.1 -0.1)">
      <use xlink:href="#DejaVuSans-6f"/>
      <use xlink:href="#DejaVuSans-75" x="61.181641"/>
      <use xlink:href="#DejaVuSans-74" x="124.560547"/>
      <use xlink:href="#DejaVuSans-6c" x="163.769531"/>
      <use xlink:href="#DejaVuSans-69" x="191.552734"/>
      <use xlink:href="#DejaVuSans-65" x="219.335938"/>
      <use xlink:href="#DejaVuSans-72" x="280.859375"/>
      <use xlink:href="#DejaVuSans-73" x="321.972656"/>
     </g>
    </g>
    <g id="line2d_25">
     <path d="M 522.482813 103.832812 
L 522.482813 99.020312 
" style="fill: none; stroke: #000000; stroke-opacity: 0; stroke-width: 1.5"/>
    </g>
    <g id="line2d_26"/>
    <g id="line2d_27">
     <g>
      <use xlink:href="#m62f54f5fdc" x="522.482813" y="99.020312" style="fill: #bfbf00; stroke: #bfbf00"/>
     </g>
    </g>
    <g id="text_23">
     <!-- support vector -->
     <g transform="translate(540.482813 103.832812) scale(0.1 -0.1)">
      <defs>
       <path id="DejaVuSans-76" d="M 191 3500 
L 800 3500 
L 1894 563 
L 2988 3500 
L 3597 3500 
L 2284 0 
L 1503 0 
L 191 3500 
z
" transform="scale(0.015625)"/>
      </defs>
      <use xlink:href="#DejaVuSans-73"/>
      <use xlink:href="#DejaVuSans-75" x="52.099609"/>
      <use xlink:href="#DejaVuSans-70" x="115.478516"/>
      <use xlink:href="#DejaVuSans-70" x="178.955078"/>
      <use xlink:href="#DejaVuSans-6f" x="242.431641"/>
      <use xlink:href="#DejaVuSans-72" x="303.613281"/>
      <use xlink:href="#DejaVuSans-74" x="344.726562"/>
      <use xlink:href="#DejaVuSans-20" x="383.935547"/>
      <use xlink:href="#DejaVuSans-76" x="415.722656"/>
      <use xlink:href="#DejaVuSans-65" x="474.902344"/>
      <use xlink:href="#DejaVuSans-63" x="536.425781"/>
      <use xlink:href="#DejaVuSans-74" x="591.40625"/>
      <use xlink:href="#DejaVuSans-6f" x="630.615234"/>
      <use xlink:href="#DejaVuSans-72" x="691.796875"/>
     </g>
    </g>
    <g id="line2d_28">
     <path d="M 522.482813 118.510937 
L 522.482813 113.698437 
" style="fill: none; stroke: #000000; stroke-opacity: 0; stroke-width: 1.5"/>
    </g>
    <g id="line2d_29"/>
    <g id="line2d_30">
     <g>
      <use xlink:href="#mc2ae857c7f" x="522.482813" y="113.698437" style="stroke: #000000"/>
     </g>
    </g>
    <g id="text_24">
     <!-- original signal -->
     <g transform="translate(540.482813 118.510937) scale(0.1 -0.1)">
      <use xlink:href="#DejaVuSans-6f"/>
      <use xlink:href="#DejaVuSans-72" x="61.181641"/>
      <use xlink:href="#DejaVuSans-69" x="102.294922"/>
      <use xlink:href="#DejaVuSans-67" x="130.078125"/>
      <use xlink:href="#DejaVuSans-69" x="193.554688"/>
      <use xlink:href="#DejaVuSans-6e" x="221.337891"/>
      <use xlink:href="#DejaVuSans-61" x="284.716797"/>
      <use xlink:href="#DejaVuSans-6c" x="345.996094"/>
      <use xlink:href="#DejaVuSans-20" x="373.779297"/>
      <use xlink:href="#DejaVuSans-73" x="405.566406"/>
      <use xlink:href="#DejaVuSans-69" x="457.666016"/>
      <use xlink:href="#DejaVuSans-67" x="485.449219"/>
      <use xlink:href="#DejaVuSans-6e" x="548.925781"/>
      <use xlink:href="#DejaVuSans-61" x="612.304688"/>
      <use xlink:href="#DejaVuSans-6c" x="673.583984"/>
     </g>
    </g>
   </g>
  </g>
 </g>
 <defs>
  <clipPath id="pb22eec6f23">
   <rect x="90" y="43.2" width="558" height="277.2"/>
  </clipPath>
 </defs>
</svg>
